# MagicaVoxel @ Ephtracy

# group
o 

# material
mtllib fire rod.mtl
usemtl palette

# normals
vn -1 0 0
vn 1 0 0
vn 0 0 1
vn 0 0 -1
vn 0 -1 0
vn 0 1 0

# texcoords
vt 0.146484 0.5
vt 0.271484 0.5

# verts
v -0.8 1.4 -1.2
v -0.8 1.4 -1.4
v -0.8 1.6 -1.2
v -0.8 1.6 -1.4
v -0.7 1.3 -1.2
v -0.7 1.3 -1.4
v -0.7 1.4 -1.2
v -0.7 1.4 -1.4
v -0.6 0 -1.2
v -0.6 0 -1.3
v -0.6 0 -1.4
v -0.6 0.1 -1.2
v -0.6 0.1 -1.3
v -0.6 0.1 -1.4
v -0.6 0.2 -1.2
v -0.6 0.2 -1.3
v -0.6 0.4 -1.3
v -0.6 0.4 -1.4
v -0.6 0.5 -1.2
v -0.6 0.5 -1.3
v -0.6 0.5 -1.4
v -0.6 0.6 -1.2
v -0.6 0.6 -1.3
v -0.6 0.8 -1.3
v -0.6 0.8 -1.4
v -0.6 0.9 -1.2
v -0.6 0.9 -1.3
v -0.6 0.9 -1.4
v -0.6 1 -1.2
v -0.6 1 -1.3
v -0.6 1.2 -1.3
v -0.6 1.2 -1.4
v -0.6 1.3 -1.1
v -0.6 1.3 -1.2
v -0.6 1.3 -1.3
v -0.6 1.3 -1.4
v -0.6 1.3 -1.5
v -0.6 1.4 -1.1
v -0.6 1.4 -1.2
v -0.6 1.4 -1.3
v -0.6 1.4 -1.4
v -0.6 1.4 -1.5
v -0.6 1.5 -1.2
v -0.6 1.5 -1.3
v -0.6 1.5 -1.4
v -0.6 1.6 -1.2
v -0.6 1.6 -1.3
v -0.5 1.4 -1.1
v -0.5 1.4 -1.2
v -0.5 1.4 -1.4
v -0.5 1.4 -1.5
v -0.5 1.5 -1.1
v -0.5 1.5 -1.2
v -0.5 1.5 -1.3
v -0.5 1.5 -1.4
v -0.5 1.5 -1.5
v -0.5 1.6 -1.3
v -0.5 1.6 -1.4
v -0.4 1.6 -1.2
v -0.4 1.6 -1.4
v -0.4 1.7 -1.2
v -0.4 1.7 -1.4
v -0.7 1.4 -1.3
v -0.7 1.4 -1.4
v -0.7 1.5 -1.2
v -0.7 1.5 -1.3
v -0.7 1.6 -1.2
v -0.7 1.6 -1.4
v -0.4 0 -1.2
v -0.4 0 -1.4
v -0.4 0.2 -1.2
v -0.4 0.2 -1.3
v -0.4 0.3 -1.2
v -0.4 0.3 -1.3
v -0.4 0.3 -1.4
v -0.4 0.4 -1.3
v -0.4 0.4 -1.4
v -0.4 0.6 -1.2
v -0.4 0.6 -1.3
v -0.4 0.7 -1.2
v -0.4 0.7 -1.3
v -0.4 0.7 -1.4
v -0.4 0.8 -1.3
v -0.4 0.8 -1.4
v -0.4 1 -1.2
v -0.4 1 -1.3
v -0.4 1.1 -1.2
v -0.4 1.1 -1.3
v -0.4 1.1 -1.4
v -0.4 1.2 -1.3
v -0.4 1.2 -1.4
v -0.4 1.3 -1.1
v -0.4 1.3 -1.2
v -0.4 1.3 -1.4
v -0.4 1.3 -1.5
v -0.4 1.4 -1.2
v -0.4 1.4 -1.4
v -0.4 1.5 -1.1
v -0.4 1.5 -1.2
v -0.4 1.5 -1.4
v -0.4 1.5 -1.5
v -0.3 1.4 -1.2
v -0.3 1.4 -1.4
v -0.3 1.7 -1.2
v -0.3 1.7 -1.4
v -0.6 1.3 -1.1
v -0.6 1.4 -1.1
v -0.5 1.4 -1.1
v -0.5 1.5 -1.1
v -0.4 1.3 -1.1
v -0.4 1.5 -1.1
v -0.8 1.4 -1.2
v -0.8 1.6 -1.2
v -0.7 1.3 -1.2
v -0.7 1.4 -1.2
v -0.7 1.5 -1.2
v -0.7 1.6 -1.2
v -0.6 0 -1.2
v -0.6 0.1 -1.2
v -0.6 0.2 -1.2
v -0.6 0.5 -1.2
v -0.6 0.6 -1.2
v -0.6 0.9 -1.2
v -0.6 1 -1.2
v -0.6 1.3 -1.2
v -0.6 1.4 -1.2
v -0.6 1.5 -1.2
v -0.6 1.6 -1.2
v -0.5 0.1 -1.2
v -0.5 0.2 -1.2
v -0.5 0.3 -1.2
v -0.5 0.5 -1.2
v -0.5 0.6 -1.2
v -0.5 0.7 -1.2
v -0.5 0.9 -1.2
v -0.5 1 -1.2
v -0.5 1.1 -1.2
v -0.5 1.4 -1.2
v -0.5 1.5 -1.2
v -0.4 0 -1.2
v -0.4 0.2 -1.2
v -0.4 0.3 -1.2
v -0.4 0.6 -1.2
v -0.4 0.7 -1.2
v -0.4 1 -1.2
v -0.4 1.1 -1.2
v -0.4 1.3 -1.2
v -0.4 1.4 -1.2
v -0.4 1.5 -1.2
v -0.4 1.6 -1.2
v -0.4 1.7 -1.2
v -0.3 1.4 -1.2
v -0.3 1.7 -1.2
v -0.7 1.4 -1.3
v -0.7 1.5 -1.3
v -0.6 1.4 -1.3
v -0.6 1.5 -1.3
v -0.6 1.6 -1.3
v -0.5 1.5 -1.3
v -0.5 1.6 -1.3
v -0.8 1.4 -1.4
v -0.8 1.6 -1.4
v -0.7 1.3 -1.4
v -0.7 1.4 -1.4
v -0.7 1.6 -1.4
v -0.6 0 -1.4
v -0.6 0.1 -1.4
v -0.6 0.4 -1.4
v -0.6 0.5 -1.4
v -0.6 0.8 -1.4
v -0.6 0.9 -1.4
v -0.6 1.2 -1.4
v -0.6 1.3 -1.4
v -0.6 1.4 -1.4
v -0.6 1.5 -1.4
v -0.5 0 -1.4
v -0.5 0.1 -1.4
v -0.5 0.3 -1.4
v -0.5 0.4 -1.4
v -0.5 0.5 -1.4
v -0.5 0.7 -1.4
v -0.5 0.8 -1.4
v -0.5 0.9 -1.4
v -0.5 1.1 -1.4
v -0.5 1.2 -1.4
v -0.5 1.3 -1.4
v -0.5 1.4 -1.4
v -0.5 1.5 -1.4
v -0.5 1.6 -1.4
v -0.4 0 -1.4
v -0.4 0.3 -1.4
v -0.4 0.4 -1.4
v -0.4 0.7 -1.4
v -0.4 0.8 -1.4
v -0.4 1.1 -1.4
v -0.4 1.2 -1.4
v -0.4 1.3 -1.4
v -0.4 1.4 -1.4
v -0.4 1.5 -1.4
v -0.4 1.6 -1.4
v -0.4 1.7 -1.4
v -0.3 1.4 -1.4
v -0.3 1.7 -1.4
v -0.6 1.3 -1.5
v -0.6 1.4 -1.5
v -0.5 1.4 -1.5
v -0.5 1.5 -1.5
v -0.4 1.3 -1.5
v -0.4 1.5 -1.5
v -0.6 0 -1.2
v -0.4 0 -1.2
v -0.6 0 -1.3
v -0.5 0 -1.3
v -0.6 0 -1.4
v -0.5 0 -1.4
v -0.4 0 -1.4
v -0.6 1.3 -1.1
v -0.4 1.3 -1.1
v -0.7 1.3 -1.2
v -0.6 1.3 -1.2
v -0.4 1.3 -1.2
v -0.6 1.3 -1.3
v -0.7 1.3 -1.4
v -0.6 1.3 -1.4
v -0.5 1.3 -1.4
v -0.4 1.3 -1.4
v -0.6 1.3 -1.5
v -0.4 1.3 -1.5
v -0.8 1.4 -1.2
v -0.7 1.4 -1.2
v -0.4 1.4 -1.2
v -0.3 1.4 -1.2
v -0.8 1.4 -1.4
v -0.7 1.4 -1.4
v -0.4 1.4 -1.4
v -0.3 1.4 -1.4
v -0.6 1.4 -1.1
v -0.5 1.4 -1.1
v -0.6 1.4 -1.2
v -0.5 1.4 -1.2
v -0.7 1.4 -1.3
v -0.6 1.4 -1.3
v -0.7 1.4 -1.4
v -0.6 1.4 -1.4
v -0.5 1.4 -1.4
v -0.6 1.4 -1.5
v -0.5 1.4 -1.5
v -0.5 1.5 -1.1
v -0.4 1.5 -1.1
v -0.7 1.5 -1.2
v -0.6 1.5 -1.2
v -0.5 1.5 -1.2
v -0.4 1.5 -1.2
v -0.7 1.5 -1.3
v -0.6 1.5 -1.3
v -0.5 1.5 -1.3
v -0.6 1.5 -1.4
v -0.5 1.5 -1.4
v -0.4 1.5 -1.4
v -0.5 1.5 -1.5
v -0.4 1.5 -1.5
v -0.8 1.6 -1.2
v -0.7 1.6 -1.2
v -0.6 1.6 -1.2
v -0.4 1.6 -1.2
v -0.6 1.6 -1.3
v -0.5 1.6 -1.3
v -0.8 1.6 -1.4
v -0.7 1.6 -1.4
v -0.5 1.6 -1.4
v -0.4 1.6 -1.4
v -0.4 1.7 -1.2
v -0.3 1.7 -1.2
v -0.4 1.7 -1.4
v -0.3 1.7 -1.4

# faces
f 3/2/1 2/2/1 1/2/1
f 4/2/1 2/2/1 3/2/1
f 7/2/1 6/2/1 5/2/1
f 8/2/1 6/2/1 7/2/1
f 12/2/1 10/2/1 9/2/1
f 13/1/1 11/1/1 10/1/1
f 13/2/1 10/2/1 12/2/1
f 14/1/1 11/1/1 13/1/1
f 15/1/1 13/1/1 12/1/1
f 16/2/1 14/2/1 13/2/1
f 16/1/1 13/1/1 15/1/1
f 17/2/1 16/2/1 15/2/1
f 17/2/1 14/2/1 16/2/1
f 18/2/1 14/2/1 17/2/1
f 19/2/1 17/2/1 15/2/1
f 20/1/1 18/1/1 17/1/1
f 20/2/1 17/2/1 19/2/1
f 21/1/1 18/1/1 20/1/1
f 22/1/1 20/1/1 19/1/1
f 23/2/1 21/2/1 20/2/1
f 23/1/1 20/1/1 22/1/1
f 24/2/1 23/2/1 22/2/1
f 24/2/1 21/2/1 23/2/1
f 25/2/1 21/2/1 24/2/1
f 26/2/1 24/2/1 22/2/1
f 27/1/1 25/1/1 24/1/1
f 27/2/1 24/2/1 26/2/1
f 28/1/1 25/1/1 27/1/1
f 29/1/1 27/1/1 26/1/1
f 30/2/1 28/2/1 27/2/1
f 30/1/1 27/1/1 29/1/1
f 31/2/1 30/2/1 29/2/1
f 31/2/1 28/2/1 30/2/1
f 32/2/1 28/2/1 31/2/1
f 34/2/1 31/2/1 29/2/1
f 35/1/1 32/1/1 31/1/1
f 35/2/1 31/2/1 34/2/1
f 36/1/1 32/1/1 35/1/1
f 38/2/1 34/2/1 33/2/1
f 39/2/1 34/2/1 38/2/1
f 41/2/1 37/2/1 36/2/1
f 42/2/1 37/2/1 41/2/1
f 44/1/1 41/1/1 40/1/1
f 45/1/1 41/1/1 44/1/1
f 46/1/1 44/1/1 43/1/1
f 47/1/1 44/1/1 46/1/1
f 52/2/1 49/2/1 48/2/1
f 53/2/1 49/2/1 52/2/1
f 55/2/1 51/2/1 50/2/1
f 56/2/1 51/2/1 55/2/1
f 57/1/1 55/1/1 54/1/1
f 58/1/1 55/1/1 57/1/1
f 61/2/1 60/2/1 59/2/1
f 62/2/1 60/2/1 61/2/1
f 63/2/2 64/2/2 66/2/2
f 65/2/2 66/2/2 67/2/2
f 66/2/2 64/2/2 68/2/2
f 67/2/2 66/2/2 68/2/2
f 69/2/2 70/2/2 71/2/2
f 71/2/2 70/2/2 72/2/2
f 71/1/2 72/1/2 73/1/2
f 72/2/2 70/2/2 74/2/2
f 73/1/2 72/1/2 74/1/2
f 74/2/2 70/2/2 75/2/2
f 73/2/2 74/2/2 76/2/2
f 74/1/2 75/1/2 76/1/2
f 76/1/2 75/1/2 77/1/2
f 73/2/2 76/2/2 78/2/2
f 76/2/2 77/2/2 78/2/2
f 78/2/2 77/2/2 79/2/2
f 78/1/2 79/1/2 80/1/2
f 79/2/2 77/2/2 81/2/2
f 80/1/2 79/1/2 81/1/2
f 81/2/2 77/2/2 82/2/2
f 80/2/2 81/2/2 83/2/2
f 81/1/2 82/1/2 83/1/2
f 83/1/2 82/1/2 84/1/2
f 80/2/2 83/2/2 85/2/2
f 83/2/2 84/2/2 85/2/2
f 85/2/2 84/2/2 86/2/2
f 85/1/2 86/1/2 87/1/2
f 86/2/2 84/2/2 88/2/2
f 87/1/2 86/1/2 88/1/2
f 88/2/2 84/2/2 89/2/2
f 87/2/2 88/2/2 90/2/2
f 88/1/2 89/1/2 90/1/2
f 90/1/2 89/1/2 91/1/2
f 87/2/2 90/2/2 93/2/2
f 90/2/2 91/2/2 93/2/2
f 93/2/2 91/2/2 94/2/2
f 93/2/2 94/2/2 96/2/2
f 94/2/2 95/2/2 96/2/2
f 92/2/2 93/2/2 96/2/2
f 96/2/2 95/2/2 97/2/2
f 92/2/2 96/2/2 98/2/2
f 98/2/2 96/2/2 99/2/2
f 97/2/2 95/2/2 100/2/2
f 100/2/2 95/2/2 101/2/2
f 102/2/2 103/2/2 104/2/2
f 104/2/2 103/2/2 105/2/2
f 108/2/3 107/2/3 106/2/3
f 110/2/3 108/2/3 106/2/3
f 110/2/3 109/2/3 108/2/3
f 111/2/3 109/2/3 110/2/3
f 115/2/3 113/2/3 112/2/3
f 116/2/3 113/2/3 115/2/3
f 117/2/3 113/2/3 116/2/3
f 125/2/3 115/2/3 114/2/3
f 126/1/3 116/1/3 115/1/3
f 126/2/3 115/2/3 125/2/3
f 127/1/3 116/1/3 126/1/3
f 129/2/3 119/2/3 118/2/3
f 129/1/3 120/1/3 119/1/3
f 130/2/3 121/2/3 120/2/3
f 130/1/3 120/1/3 129/1/3
f 131/2/3 121/2/3 130/2/3
f 132/1/3 122/1/3 121/1/3
f 132/2/3 121/2/3 131/2/3
f 133/2/3 123/2/3 122/2/3
f 133/1/3 122/1/3 132/1/3
f 134/2/3 123/2/3 133/2/3
f 135/1/3 124/1/3 123/1/3
f 135/2/3 123/2/3 134/2/3
f 136/2/3 125/2/3 124/2/3
f 136/1/3 124/1/3 135/1/3
f 137/2/3 125/2/3 136/2/3
f 138/1/3 128/1/3 127/1/3
f 138/1/3 127/1/3 126/1/3
f 139/1/3 128/1/3 138/1/3
f 140/2/3 129/2/3 118/2/3
f 140/2/3 130/2/3 129/2/3
f 141/1/3 131/1/3 130/1/3
f 141/2/3 130/2/3 140/2/3
f 142/2/3 132/2/3 131/2/3
f 142/1/3 131/1/3 141/1/3
f 142/2/3 133/2/3 132/2/3
f 143/1/3 134/1/3 133/1/3
f 143/2/3 133/2/3 142/2/3
f 144/2/3 135/2/3 134/2/3
f 144/1/3 134/1/3 143/1/3
f 144/2/3 136/2/3 135/2/3
f 145/1/3 137/1/3 136/1/3
f 145/2/3 136/2/3 144/2/3
f 146/2/3 125/2/3 137/2/3
f 146/1/3 137/1/3 145/1/3
f 147/2/3 125/2/3 146/2/3
f 149/1/3 128/1/3 139/1/3
f 150/1/3 128/1/3 149/1/3
f 152/2/3 151/2/3 150/2/3
f 152/2/3 149/2/3 148/2/3
f 152/2/3 150/2/3 149/2/3
f 153/2/3 151/2/3 152/2/3
f 154/1/4 155/1/4 156/1/4
f 156/1/4 155/1/4 157/1/4
f 157/1/4 158/1/4 159/1/4
f 159/1/4 158/1/4 160/1/4
f 161/2/4 162/2/4 164/2/4
f 164/2/4 162/2/4 165/2/4
f 163/2/4 164/2/4 173/2/4
f 173/2/4 164/2/4 174/2/4
f 166/1/4 167/1/4 176/1/4
f 167/2/4 168/2/4 177/2/4
f 176/1/4 167/1/4 177/1/4
f 177/2/4 168/2/4 178/2/4
f 168/1/4 169/1/4 179/1/4
f 178/2/4 168/2/4 179/2/4
f 169/2/4 170/2/4 180/2/4
f 179/1/4 169/1/4 180/1/4
f 180/2/4 170/2/4 181/2/4
f 170/1/4 171/1/4 182/1/4
f 181/2/4 170/2/4 182/2/4
f 171/2/4 172/2/4 183/2/4
f 182/1/4 171/1/4 183/1/4
f 183/2/4 172/2/4 184/2/4
f 172/1/4 173/1/4 185/1/4
f 184/2/4 172/2/4 185/2/4
f 185/1/4 173/1/4 186/1/4
f 174/1/4 175/1/4 187/1/4
f 187/1/4 175/1/4 188/1/4
f 177/2/4 178/2/4 190/2/4
f 176/2/4 177/2/4 190/2/4
f 178/1/4 179/1/4 191/1/4
f 190/2/4 178/2/4 191/2/4
f 180/2/4 181/2/4 192/2/4
f 191/1/4 179/1/4 192/1/4
f 179/2/4 180/2/4 192/2/4
f 181/1/4 182/1/4 193/1/4
f 192/2/4 181/2/4 193/2/4
f 183/2/4 184/2/4 194/2/4
f 193/1/4 182/1/4 194/1/4
f 182/2/4 183/2/4 194/2/4
f 184/1/4 185/1/4 195/1/4
f 194/2/4 184/2/4 195/2/4
f 185/2/4 186/2/4 196/2/4
f 195/1/4 185/1/4 196/1/4
f 196/2/4 186/2/4 197/2/4
f 188/1/4 189/1/4 199/1/4
f 199/1/4 189/1/4 200/1/4
f 200/2/4 201/2/4 202/2/4
f 198/2/4 199/2/4 202/2/4
f 199/2/4 200/2/4 202/2/4
f 202/2/4 201/2/4 203/2/4
f 204/2/4 205/2/4 206/2/4
f 204/2/4 206/2/4 208/2/4
f 206/2/4 207/2/4 208/2/4
f 208/2/4 207/2/4 209/2/4
f 212/2/5 211/2/5 210/2/5
f 213/2/5 211/2/5 212/2/5
f 214/1/5 213/1/5 212/1/5
f 215/2/5 211/2/5 213/2/5
f 215/1/5 213/1/5 214/1/5
f 216/2/5 211/2/5 215/2/5
f 220/2/5 218/2/5 217/2/5
f 221/2/5 218/2/5 220/2/5
f 222/2/5 220/2/5 219/2/5
f 223/2/5 222/2/5 219/2/5
f 224/2/5 222/2/5 223/2/5
f 227/2/5 226/2/5 225/2/5
f 227/2/5 225/2/5 224/2/5
f 228/2/5 226/2/5 227/2/5
f 233/2/5 230/2/5 229/2/5
f 234/2/5 230/2/5 233/2/5
f 235/2/5 232/2/5 231/2/5
f 236/2/5 232/2/5 235/2/5
f 237/2/6 238/2/6 239/2/6
f 239/2/6 238/2/6 240/2/6
f 241/2/6 242/2/6 243/2/6
f 243/2/6 242/2/6 244/2/6
f 244/2/6 245/2/6 246/2/6
f 246/2/6 245/2/6 247/2/6
f 248/2/6 249/2/6 252/2/6
f 252/2/6 249/2/6 253/2/6
f 250/1/6 251/1/6 254/1/6
f 254/1/6 251/1/6 255/1/6
f 255/1/6 256/1/6 257/1/6
f 257/1/6 256/1/6 258/1/6
f 258/2/6 259/2/6 260/2/6
f 260/2/6 259/2/6 261/2/6
f 264/1/6 265/1/6 266/1/6
f 266/1/6 265/1/6 267/1/6
f 262/2/6 263/2/6 268/2/6
f 268/2/6 263/2/6 269/2/6
f 267/1/6 265/1/6 270/1/6
f 270/1/6 265/1/6 271/1/6
f 272/2/6 273/2/6 274/2/6
f 274/2/6 273/2/6 275/2/6
