# MagicaVoxel @ Ephtracy

# group
o 

# material
mtllib tower5.mtl
usemtl palette

# normals
vn -1 0 0
vn 1 0 0
vn 0 0 1
vn 0 0 -1
vn 0 -1 0
vn 0 1 0

# texcoords
vt 0.705078 0.5
vt 0.767578 0.5
vt 0.771484 0.5

# verts
v -0.4 0 0.1
v -0.4 0 -0.5
v -0.4 0.1 0.1
v -0.4 0.1 -0.5
v -0.4 0.4 0.2
v -0.4 0.4 -0.1
v -0.4 0.4 -0.3
v -0.4 0.4 -0.6
v -0.4 0.5 0.2
v -0.4 0.5 -0.1
v -0.4 0.5 -0.3
v -0.4 0.5 -0.6
v -0.4 0.9 0
v -0.4 0.9 -0.1
v -0.4 0.9 -0.3
v -0.4 0.9 -0.4
v -0.4 1 0
v -0.4 1 -0.1
v -0.4 1 -0.3
v -0.4 1 -0.4
v -0.3 0 0.2
v -0.3 0 0.1
v -0.3 0 -0.5
v -0.3 0 -0.6
v -0.3 0.1 0.2
v -0.3 0.1 0.1
v -0.3 0.1 -0.1
v -0.3 0.1 -0.3
v -0.3 0.1 -0.5
v -0.3 0.1 -0.6
v -0.3 0.4 0.3
v -0.3 0.4 0.2
v -0.3 0.4 0.1
v -0.3 0.4 -0.1
v -0.3 0.4 -0.3
v -0.3 0.4 -0.5
v -0.3 0.4 -0.6
v -0.3 0.4 -0.7
v -0.3 0.5 0.3
v -0.3 0.5 0.2
v -0.3 0.5 0.1
v -0.3 0.5 -0.1
v -0.3 0.5 -0.3
v -0.3 0.5 -0.5
v -0.3 0.5 -0.6
v -0.3 0.5 -0.7
v -0.3 0.7 0.1
v -0.3 0.7 -0.5
v -0.3 0.9 0.1
v -0.3 0.9 0
v -0.3 0.9 -0.1
v -0.3 0.9 -0.3
v -0.3 0.9 -0.4
v -0.3 0.9 -0.5
v -0.3 1 0.1
v -0.3 1 0
v -0.3 1 -0.1
v -0.3 1 -0.3
v -0.3 1 -0.4
v -0.3 1 -0.5
v -0.2 0.1 -0.1
v -0.2 0.1 -0.3
v -0.2 0.4 -0.1
v -0.2 0.4 -0.3
v -0.2 0.7 0
v -0.2 0.7 -0.4
v -0.2 0.9 0
v -0.2 0.9 -0.4
v -0.2 1 -0.1
v -0.2 1 -0.3
v -0.2 1.2 -0.1
v -0.2 1.2 -0.3
v -0.1 0.9 0.1
v -0.1 0.9 0
v -0.1 0.9 -0.4
v -0.1 0.9 -0.5
v -0.1 1 0
v -0.1 1 -0.1
v -0.1 1 -0.3
v -0.1 1 -0.4
v -0.1 1.2 0.1
v -0.1 1.2 -0.1
v -0.1 1.2 -0.3
v -0.1 1.2 -0.5
v -0.1 1.4 -0.1
v -0.1 1.4 -0.3
v -0.1 1.5 -0.1
v -0.1 1.5 -0.3
v 0.1 0.1 0.1
v 0.1 0.1 0
v 0.1 0.1 -0.4
v 0.1 0.1 -0.5
v 0.1 0.4 0.2
v 0.1 0.4 0.1
v 0.1 0.4 0
v 0.1 0.4 -0.4
v 0.1 0.4 -0.5
v 0.1 0.4 -0.6
v 0.1 0.5 0.2
v 0.1 0.5 0.1
v 0.1 0.5 -0.5
v 0.1 0.5 -0.6
v 0.2 0.4 0.3
v 0.2 0.4 0.2
v 0.2 0.4 -0.6
v 0.2 0.4 -0.7
v 0.2 0.5 0.3
v 0.2 0.5 0.2
v 0.2 0.5 -0.6
v 0.2 0.5 -0.7
v 0.2 0.9 0.1
v 0.2 0.9 0
v 0.2 0.9 -0.4
v 0.2 0.9 -0.5
v 0.2 1 0.1
v 0.2 1 0
v 0.2 1 -0.4
v 0.2 1 -0.5
v -0.2 0.4 0.3
v -0.2 0.4 0.2
v -0.2 0.4 -0.6
v -0.2 0.4 -0.7
v -0.2 0.5 0.3
v -0.2 0.5 0.2
v -0.2 0.5 -0.6
v -0.2 0.5 -0.7
v -0.2 0.9 0.1
v -0.2 0.9 0
v -0.2 0.9 -0.4
v -0.2 0.9 -0.5
v -0.2 1 0.1
v -0.2 1 0
v -0.2 1 -0.4
v -0.2 1 -0.5
v -0.1 0.1 0.1
v -0.1 0.1 0
v -0.1 0.1 -0.4
v -0.1 0.1 -0.5
v -0.1 0.4 0.2
v -0.1 0.4 0.1
v -0.1 0.4 0
v -0.1 0.4 -0.4
v -0.1 0.4 -0.5
v -0.1 0.4 -0.6
v -0.1 0.5 0.2
v -0.1 0.5 0.1
v -0.1 0.5 -0.5
v -0.1 0.5 -0.6
v 0.1 0.9 0.1
v 0.1 0.9 0
v 0.1 0.9 -0.4
v 0.1 0.9 -0.5
v 0.1 1 0
v 0.1 1 -0.1
v 0.1 1 -0.3
v 0.1 1 -0.4
v 0.1 1.2 0.1
v 0.1 1.2 -0.1
v 0.1 1.2 -0.3
v 0.1 1.2 -0.5
v 0.1 1.4 -0.1
v 0.1 1.4 -0.3
v 0.1 1.5 -0.1
v 0.1 1.5 -0.3
v 0.2 0.1 -0.1
v 0.2 0.1 -0.3
v 0.2 0.4 -0.1
v 0.2 0.4 -0.3
v 0.2 0.7 0
v 0.2 0.7 -0.4
v 0.2 0.9 0
v 0.2 0.9 -0.4
v 0.2 1 -0.1
v 0.2 1 -0.3
v 0.2 1.2 -0.1
v 0.2 1.2 -0.3
v 0.3 0 0.2
v 0.3 0 0.1
v 0.3 0 -0.5
v 0.3 0 -0.6
v 0.3 0.1 0.2
v 0.3 0.1 0.1
v 0.3 0.1 -0.1
v 0.3 0.1 -0.3
v 0.3 0.1 -0.5
v 0.3 0.1 -0.6
v 0.3 0.4 0.3
v 0.3 0.4 0.2
v 0.3 0.4 0.1
v 0.3 0.4 -0.1
v 0.3 0.4 -0.3
v 0.3 0.4 -0.5
v 0.3 0.4 -0.6
v 0.3 0.4 -0.7
v 0.3 0.5 0.3
v 0.3 0.5 0.2
v 0.3 0.5 0.1
v 0.3 0.5 -0.1
v 0.3 0.5 -0.3
v 0.3 0.5 -0.5
v 0.3 0.5 -0.6
v 0.3 0.5 -0.7
v 0.3 0.7 0.1
v 0.3 0.7 -0.5
v 0.3 0.9 0.1
v 0.3 0.9 0
v 0.3 0.9 -0.1
v 0.3 0.9 -0.3
v 0.3 0.9 -0.4
v 0.3 0.9 -0.5
v 0.3 1 0.1
v 0.3 1 0
v 0.3 1 -0.1
v 0.3 1 -0.3
v 0.3 1 -0.4
v 0.3 1 -0.5
v 0.4 0 0.1
v 0.4 0 -0.5
v 0.4 0.1 0.1
v 0.4 0.1 -0.5
v 0.4 0.4 0.2
v 0.4 0.4 -0.1
v 0.4 0.4 -0.3
v 0.4 0.4 -0.6
v 0.4 0.5 0.2
v 0.4 0.5 -0.1
v 0.4 0.5 -0.3
v 0.4 0.5 -0.6
v 0.4 0.9 0
v 0.4 0.9 -0.1
v 0.4 0.9 -0.3
v 0.4 0.9 -0.4
v 0.4 1 0
v 0.4 1 -0.1
v 0.4 1 -0.3
v 0.4 1 -0.4
v -0.3 0.4 0.3
v -0.3 0.5 0.3
v -0.2 0.4 0.3
v -0.2 0.5 0.3
v 0.2 0.4 0.3
v 0.2 0.5 0.3
v 0.3 0.4 0.3
v 0.3 0.5 0.3
v -0.4 0.4 0.2
v -0.4 0.5 0.2
v -0.3 0 0.2
v -0.3 0.1 0.2
v -0.3 0.4 0.2
v -0.3 0.5 0.2
v -0.2 0.4 0.2
v -0.2 0.5 0.2
v -0.1 0.4 0.2
v -0.1 0.5 0.2
v 0.1 0.4 0.2
v 0.1 0.5 0.2
v 0.2 0.4 0.2
v 0.2 0.5 0.2
v 0.3 0 0.2
v 0.3 0.1 0.2
v 0.3 0.4 0.2
v 0.3 0.5 0.2
v 0.4 0.4 0.2
v 0.4 0.5 0.2
v -0.4 0 0.1
v -0.4 0.1 0.1
v -0.3 0 0.1
v -0.3 0.1 0.1
v -0.3 0.4 0.1
v -0.3 0.5 0.1
v -0.3 0.7 0.1
v -0.3 0.9 0.1
v -0.3 1 0.1
v -0.2 0.9 0.1
v -0.2 1 0.1
v -0.1 0.1 0.1
v -0.1 0.4 0.1
v -0.1 0.5 0.1
v -0.1 0.9 0.1
v -0.1 1.2 0.1
v 0.1 0.1 0.1
v 0.1 0.4 0.1
v 0.1 0.5 0.1
v 0.1 0.9 0.1
v 0.1 1.2 0.1
v 0.2 0.9 0.1
v 0.2 1 0.1
v 0.3 0 0.1
v 0.3 0.1 0.1
v 0.3 0.4 0.1
v 0.3 0.5 0.1
v 0.3 0.7 0.1
v 0.3 0.9 0.1
v 0.3 1 0.1
v 0.4 0 0.1
v 0.4 0.1 0.1
v -0.4 0.9 0
v -0.4 1 0
v -0.3 0.9 0
v -0.3 1 0
v -0.2 0.7 0
v -0.2 0.9 0
v -0.2 1 0
v -0.1 0.1 0
v -0.1 0.4 0
v -0.1 0.9 0
v -0.1 1 0
v 0.1 0.1 0
v 0.1 0.4 0
v 0.1 0.9 0
v 0.1 1 0
v 0.2 0.7 0
v 0.2 0.9 0
v 0.2 1 0
v 0.3 0.9 0
v 0.3 1 0
v 0.4 0.9 0
v 0.4 1 0
v -0.2 1 -0.1
v -0.2 1.2 -0.1
v -0.1 1 -0.1
v -0.1 1.2 -0.1
v -0.1 1.4 -0.1
v -0.1 1.5 -0.1
v 0.1 1 -0.1
v 0.1 1.2 -0.1
v 0.1 1.4 -0.1
v 0.1 1.5 -0.1
v 0.2 1 -0.1
v 0.2 1.2 -0.1
v -0.4 0.4 -0.3
v -0.4 0.5 -0.3
v -0.4 0.9 -0.3
v -0.4 1 -0.3
v -0.3 0.1 -0.3
v -0.3 0.4 -0.3
v -0.3 0.5 -0.3
v -0.3 0.9 -0.3
v -0.3 1 -0.3
v -0.2 0.1 -0.3
v -0.2 0.4 -0.3
v 0.2 0.1 -0.3
v 0.2 0.4 -0.3
v 0.3 0.1 -0.3
v 0.3 0.4 -0.3
v 0.3 0.5 -0.3
v 0.3 0.9 -0.3
v 0.3 1 -0.3
v 0.4 0.4 -0.3
v 0.4 0.5 -0.3
v 0.4 0.9 -0.3
v 0.4 1 -0.3
v -0.4 0.4 -0.1
v -0.4 0.5 -0.1
v -0.4 0.9 -0.1
v -0.4 1 -0.1
v -0.3 0.1 -0.1
v -0.3 0.4 -0.1
v -0.3 0.5 -0.1
v -0.3 0.9 -0.1
v -0.3 1 -0.1
v -0.2 0.1 -0.1
v -0.2 0.4 -0.1
v 0.2 0.1 -0.1
v 0.2 0.4 -0.1
v 0.3 0.1 -0.1
v 0.3 0.4 -0.1
v 0.3 0.5 -0.1
v 0.3 0.9 -0.1
v 0.3 1 -0.1
v 0.4 0.4 -0.1
v 0.4 0.5 -0.1
v 0.4 0.9 -0.1
v 0.4 1 -0.1
v -0.2 1 -0.3
v -0.2 1.2 -0.3
v -0.1 1 -0.3
v -0.1 1.2 -0.3
v -0.1 1.4 -0.3
v -0.1 1.5 -0.3
v 0.1 1 -0.3
v 0.1 1.2 -0.3
v 0.1 1.4 -0.3
v 0.1 1.5 -0.3
v 0.2 1 -0.3
v 0.2 1.2 -0.3
v -0.4 0.9 -0.4
v -0.4 1 -0.4
v -0.3 0.9 -0.4
v -0.3 1 -0.4
v -0.2 0.7 -0.4
v -0.2 0.9 -0.4
v -0.2 1 -0.4
v -0.1 0.1 -0.4
v -0.1 0.4 -0.4
v -0.1 0.9 -0.4
v -0.1 1 -0.4
v 0.1 0.1 -0.4
v 0.1 0.4 -0.4
v 0.1 0.9 -0.4
v 0.1 1 -0.4
v 0.2 0.7 -0.4
v 0.2 0.9 -0.4
v 0.2 1 -0.4
v 0.3 0.9 -0.4
v 0.3 1 -0.4
v 0.4 0.9 -0.4
v 0.4 1 -0.4
v -0.4 0 -0.5
v -0.4 0.1 -0.5
v -0.3 0 -0.5
v -0.3 0.1 -0.5
v -0.3 0.4 -0.5
v -0.3 0.5 -0.5
v -0.3 0.7 -0.5
v -0.3 0.9 -0.5
v -0.3 1 -0.5
v -0.2 0.9 -0.5
v -0.2 1 -0.5
v -0.1 0.1 -0.5
v -0.1 0.4 -0.5
v -0.1 0.5 -0.5
v -0.1 0.9 -0.5
v -0.1 1.2 -0.5
v 0.1 0.1 -0.5
v 0.1 0.4 -0.5
v 0.1 0.5 -0.5
v 0.1 0.9 -0.5
v 0.1 1.2 -0.5
v 0.2 0.9 -0.5
v 0.2 1 -0.5
v 0.3 0 -0.5
v 0.3 0.1 -0.5
v 0.3 0.4 -0.5
v 0.3 0.5 -0.5
v 0.3 0.7 -0.5
v 0.3 0.9 -0.5
v 0.3 1 -0.5
v 0.4 0 -0.5
v 0.4 0.1 -0.5
v -0.4 0.4 -0.6
v -0.4 0.5 -0.6
v -0.3 0 -0.6
v -0.3 0.1 -0.6
v -0.3 0.4 -0.6
v -0.3 0.5 -0.6
v -0.2 0.4 -0.6
v -0.2 0.5 -0.6
v -0.1 0.4 -0.6
v -0.1 0.5 -0.6
v 0.1 0.4 -0.6
v 0.1 0.5 -0.6
v 0.2 0.4 -0.6
v 0.2 0.5 -0.6
v 0.3 0 -0.6
v 0.3 0.1 -0.6
v 0.3 0.4 -0.6
v 0.3 0.5 -0.6
v 0.4 0.4 -0.6
v 0.4 0.5 -0.6
v -0.3 0.4 -0.7
v -0.3 0.5 -0.7
v -0.2 0.4 -0.7
v -0.2 0.5 -0.7
v 0.2 0.4 -0.7
v 0.2 0.5 -0.7
v 0.3 0.4 -0.7
v 0.3 0.5 -0.7
v -0.3 0 0.2
v 0.3 0 0.2
v -0.4 0 0.1
v -0.3 0 0.1
v -0.1 0 0.1
v 0.1 0 0.1
v 0.3 0 0.1
v 0.4 0 0.1
v -0.1 0 0
v 0.1 0 0
v -0.3 0 -0.1
v -0.2 0 -0.1
v 0.2 0 -0.1
v 0.3 0 -0.1
v -0.3 0 -0.3
v -0.2 0 -0.3
v 0.2 0 -0.3
v 0.3 0 -0.3
v -0.1 0 -0.4
v 0.1 0 -0.4
v -0.4 0 -0.5
v -0.3 0 -0.5
v -0.1 0 -0.5
v 0.1 0 -0.5
v 0.3 0 -0.5
v 0.4 0 -0.5
v -0.3 0 -0.6
v 0.3 0 -0.6
v -0.3 0.4 0.3
v -0.2 0.4 0.3
v 0.2 0.4 0.3
v 0.3 0.4 0.3
v -0.4 0.4 0.2
v -0.3 0.4 0.2
v -0.2 0.4 0.2
v -0.1 0.4 0.2
v 0.1 0.4 0.2
v 0.2 0.4 0.2
v 0.3 0.4 0.2
v 0.4 0.4 0.2
v -0.3 0.4 0.1
v -0.1 0.4 0.1
v 0.1 0.4 0.1
v 0.3 0.4 0.1
v -0.1 0.4 0
v 0.1 0.4 0
v -0.4 0.4 -0.1
v -0.3 0.4 -0.1
v -0.2 0.4 -0.1
v 0.2 0.4 -0.1
v 0.3 0.4 -0.1
v 0.4 0.4 -0.1
v -0.4 0.4 -0.3
v -0.3 0.4 -0.3
v -0.2 0.4 -0.3
v 0.2 0.4 -0.3
v 0.3 0.4 -0.3
v 0.4 0.4 -0.3
v -0.1 0.4 -0.4
v 0.1 0.4 -0.4
v -0.3 0.4 -0.5
v -0.1 0.4 -0.5
v 0.1 0.4 -0.5
v 0.3 0.4 -0.5
v -0.4 0.4 -0.6
v -0.3 0.4 -0.6
v -0.2 0.4 -0.6
v -0.1 0.4 -0.6
v 0.1 0.4 -0.6
v 0.2 0.4 -0.6
v 0.3 0.4 -0.6
v 0.4 0.4 -0.6
v -0.3 0.4 -0.7
v -0.2 0.4 -0.7
v 0.2 0.4 -0.7
v 0.3 0.4 -0.7
v -0.3 0.9 0.1
v -0.2 0.9 0.1
v -0.1 0.9 0.1
v 0.1 0.9 0.1
v 0.2 0.9 0.1
v 0.3 0.9 0.1
v -0.4 0.9 0
v -0.3 0.9 0
v -0.2 0.9 0
v -0.1 0.9 0
v 0.1 0.9 0
v 0.2 0.9 0
v 0.3 0.9 0
v 0.4 0.9 0
v -0.4 0.9 -0.1
v -0.3 0.9 -0.1
v 0.3 0.9 -0.1
v 0.4 0.9 -0.1
v -0.4 0.9 -0.3
v -0.3 0.9 -0.3
v 0.3 0.9 -0.3
v 0.4 0.9 -0.3
v -0.4 0.9 -0.4
v -0.3 0.9 -0.4
v -0.2 0.9 -0.4
v -0.1 0.9 -0.4
v 0.1 0.9 -0.4
v 0.2 0.9 -0.4
v 0.3 0.9 -0.4
v 0.4 0.9 -0.4
v -0.3 0.9 -0.5
v -0.2 0.9 -0.5
v -0.1 0.9 -0.5
v 0.1 0.9 -0.5
v 0.2 0.9 -0.5
v 0.3 0.9 -0.5
v -0.3 0.1 0.2
v 0.3 0.1 0.2
v -0.4 0.1 0.1
v -0.3 0.1 0.1
v -0.1 0.1 0.1
v 0.1 0.1 0.1
v 0.3 0.1 0.1
v 0.4 0.1 0.1
v -0.1 0.1 0
v 0.1 0.1 0
v -0.3 0.1 -0.1
v -0.2 0.1 -0.1
v 0.2 0.1 -0.1
v 0.3 0.1 -0.1
v -0.3 0.1 -0.3
v -0.2 0.1 -0.3
v 0.2 0.1 -0.3
v 0.3 0.1 -0.3
v -0.1 0.1 -0.4
v 0.1 0.1 -0.4
v -0.4 0.1 -0.5
v -0.3 0.1 -0.5
v -0.1 0.1 -0.5
v 0.1 0.1 -0.5
v 0.3 0.1 -0.5
v 0.4 0.1 -0.5
v -0.3 0.1 -0.6
v 0.3 0.1 -0.6
v -0.3 0.5 0.3
v -0.2 0.5 0.3
v 0.2 0.5 0.3
v 0.3 0.5 0.3
v -0.4 0.5 0.2
v -0.3 0.5 0.2
v -0.2 0.5 0.2
v -0.1 0.5 0.2
v 0.1 0.5 0.2
v 0.2 0.5 0.2
v 0.3 0.5 0.2
v 0.4 0.5 0.2
v -0.3 0.5 0.1
v -0.1 0.5 0.1
v 0.1 0.5 0.1
v 0.3 0.5 0.1
v -0.4 0.5 -0.1
v -0.3 0.5 -0.1
v 0.3 0.5 -0.1
v 0.4 0.5 -0.1
v -0.4 0.5 -0.3
v -0.3 0.5 -0.3
v 0.3 0.5 -0.3
v 0.4 0.5 -0.3
v -0.3 0.5 -0.5
v -0.1 0.5 -0.5
v 0.1 0.5 -0.5
v 0.3 0.5 -0.5
v -0.4 0.5 -0.6
v -0.3 0.5 -0.6
v -0.2 0.5 -0.6
v -0.1 0.5 -0.6
v 0.1 0.5 -0.6
v 0.2 0.5 -0.6
v 0.3 0.5 -0.6
v 0.4 0.5 -0.6
v -0.3 0.5 -0.7
v -0.2 0.5 -0.7
v 0.2 0.5 -0.7
v 0.3 0.5 -0.7
v -0.3 0.7 0.1
v 0.3 0.7 0.1
v -0.2 0.7 0
v 0.2 0.7 0
v -0.2 0.7 -0.4
v 0.2 0.7 -0.4
v -0.3 0.7 -0.5
v 0.3 0.7 -0.5
v -0.3 1 0.1
v -0.2 1 0.1
v 0.2 1 0.1
v 0.3 1 0.1
v -0.4 1 0
v -0.3 1 0
v -0.2 1 0
v -0.1 1 0
v 0.1 1 0
v 0.2 1 0
v 0.3 1 0
v 0.4 1 0
v -0.4 1 -0.1
v -0.3 1 -0.1
v -0.2 1 -0.1
v -0.1 1 -0.1
v 0.1 1 -0.1
v 0.2 1 -0.1
v 0.3 1 -0.1
v 0.4 1 -0.1
v -0.4 1 -0.3
v -0.3 1 -0.3
v -0.2 1 -0.3
v -0.1 1 -0.3
v 0.1 1 -0.3
v 0.2 1 -0.3
v 0.3 1 -0.3
v 0.4 1 -0.3
v -0.4 1 -0.4
v -0.3 1 -0.4
v -0.2 1 -0.4
v -0.1 1 -0.4
v 0.1 1 -0.4
v 0.2 1 -0.4
v 0.3 1 -0.4
v 0.4 1 -0.4
v -0.3 1 -0.5
v -0.2 1 -0.5
v 0.2 1 -0.5
v 0.3 1 -0.5
v -0.1 1.2 0.1
v 0.1 1.2 0.1
v -0.2 1.2 -0.1
v -0.1 1.2 -0.1
v 0.1 1.2 -0.1
v 0.2 1.2 -0.1
v -0.2 1.2 -0.3
v -0.1 1.2 -0.3
v 0.1 1.2 -0.3
v 0.2 1.2 -0.3
v -0.1 1.2 -0.5
v 0.1 1.2 -0.5
v -0.1 1.5 -0.1
v 0.1 1.5 -0.1
v -0.1 1.5 -0.3
v 0.1 1.5 -0.3

# faces
f 3/3/1 2/3/1 1/3/1
f 4/3/1 2/3/1 3/3/1
f 9/3/1 6/3/1 5/3/1
f 10/3/1 6/3/1 9/3/1
f 11/3/1 8/3/1 7/3/1
f 12/3/1 8/3/1 11/3/1
f 17/3/1 14/3/1 13/3/1
f 18/3/1 14/3/1 17/3/1
f 19/3/1 16/3/1 15/3/1
f 20/3/1 16/3/1 19/3/1
f 25/3/1 22/3/1 21/3/1
f 26/3/1 22/3/1 25/3/1
f 29/3/1 24/3/1 23/3/1
f 30/3/1 24/3/1 29/3/1
f 33/1/1 27/1/1 26/1/1
f 34/1/1 27/1/1 33/1/1
f 35/1/1 29/1/1 28/1/1
f 36/1/1 29/1/1 35/1/1
f 39/3/1 32/3/1 31/3/1
f 40/3/1 32/3/1 39/3/1
f 42/1/1 35/1/1 34/1/1
f 43/1/1 35/1/1 42/1/1
f 45/3/1 38/3/1 37/3/1
f 46/3/1 38/3/1 45/3/1
f 47/1/1 44/1/1 43/1/1
f 47/1/1 42/1/1 41/1/1
f 47/1/1 43/1/1 42/1/1
f 48/1/1 44/1/1 47/1/1
f 55/3/1 50/3/1 49/3/1
f 56/3/1 50/3/1 55/3/1
f 57/3/1 52/3/1 51/3/1
f 58/3/1 52/3/1 57/3/1
f 59/3/1 54/3/1 53/3/1
f 60/3/1 54/3/1 59/3/1
f 63/2/1 62/2/1 61/2/1
f 64/2/1 62/2/1 63/2/1
f 67/1/1 66/1/1 65/1/1
f 68/1/1 66/1/1 67/1/1
f 71/1/1 70/1/1 69/1/1
f 72/1/1 70/1/1 71/1/1
f 77/1/1 74/1/1 73/1/1
f 80/1/1 76/1/1 75/1/1
f 81/1/1 78/1/1 77/1/1
f 81/1/1 77/1/1 73/1/1
f 82/1/1 78/1/1 81/1/1
f 83/1/1 80/1/1 79/1/1
f 84/1/1 76/1/1 80/1/1
f 84/1/1 80/1/1 83/1/1
f 85/1/1 83/1/1 82/1/1
f 86/1/1 83/1/1 85/1/1
f 87/3/1 86/3/1 85/3/1
f 88/3/1 86/3/1 87/3/1
f 94/1/1 90/1/1 89/1/1
f 95/1/1 90/1/1 94/1/1
f 96/1/1 92/1/1 91/1/1
f 97/1/1 92/1/1 96/1/1
f 99/3/1 94/3/1 93/3/1
f 100/3/1 94/3/1 99/3/1
f 101/3/1 98/3/1 97/3/1
f 102/3/1 98/3/1 101/3/1
f 107/3/1 104/3/1 103/3/1
f 108/3/1 104/3/1 107/3/1
f 109/3/1 106/3/1 105/3/1
f 110/3/1 106/3/1 109/3/1
f 115/3/1 112/3/1 111/3/1
f 116/3/1 112/3/1 115/3/1
f 117/3/1 114/3/1 113/3/1
f 118/3/1 114/3/1 117/3/1
f 119/3/2 120/3/2 123/3/2
f 123/3/2 120/3/2 124/3/2
f 121/3/2 122/3/2 125/3/2
f 125/3/2 122/3/2 126/3/2
f 127/3/2 128/3/2 131/3/2
f 131/3/2 128/3/2 132/3/2
f 129/3/2 130/3/2 133/3/2
f 133/3/2 130/3/2 134/3/2
f 135/1/2 136/1/2 140/1/2
f 140/1/2 136/1/2 141/1/2
f 137/1/2 138/1/2 142/1/2
f 142/1/2 138/1/2 143/1/2
f 139/3/2 140/3/2 145/3/2
f 145/3/2 140/3/2 146/3/2
f 143/3/2 144/3/2 147/3/2
f 147/3/2 144/3/2 148/3/2
f 149/1/2 150/1/2 153/1/2
f 151/1/2 152/1/2 156/1/2
f 153/1/2 154/1/2 157/1/2
f 149/1/2 153/1/2 157/1/2
f 157/1/2 154/1/2 158/1/2
f 155/1/2 156/1/2 159/1/2
f 156/1/2 152/1/2 160/1/2
f 159/1/2 156/1/2 160/1/2
f 158/1/2 159/1/2 161/1/2
f 161/1/2 159/1/2 162/1/2
f 161/3/2 162/3/2 163/3/2
f 163/3/2 162/3/2 164/3/2
f 165/2/2 166/2/2 167/2/2
f 167/2/2 166/2/2 168/2/2
f 169/1/2 170/1/2 171/1/2
f 171/1/2 170/1/2 172/1/2
f 173/1/2 174/1/2 175/1/2
f 175/1/2 174/1/2 176/1/2
f 177/3/2 178/3/2 181/3/2
f 181/3/2 178/3/2 182/3/2
f 179/3/2 180/3/2 185/3/2
f 185/3/2 180/3/2 186/3/2
f 182/1/2 183/1/2 189/1/2
f 189/1/2 183/1/2 190/1/2
f 184/1/2 185/1/2 191/1/2
f 191/1/2 185/1/2 192/1/2
f 187/3/2 188/3/2 195/3/2
f 195/3/2 188/3/2 196/3/2
f 190/1/2 191/1/2 198/1/2
f 198/1/2 191/1/2 199/1/2
f 193/3/2 194/3/2 201/3/2
f 201/3/2 194/3/2 202/3/2
f 199/1/2 200/1/2 203/1/2
f 197/1/2 198/1/2 203/1/2
f 198/1/2 199/1/2 203/1/2
f 203/1/2 200/1/2 204/1/2
f 205/3/2 206/3/2 211/3/2
f 211/3/2 206/3/2 212/3/2
f 207/3/2 208/3/2 213/3/2
f 213/3/2 208/3/2 214/3/2
f 209/3/2 210/3/2 215/3/2
f 215/3/2 210/3/2 216/3/2
f 217/3/2 218/3/2 219/3/2
f 219/3/2 218/3/2 220/3/2
f 221/3/2 222/3/2 225/3/2
f 225/3/2 222/3/2 226/3/2
f 223/3/2 224/3/2 227/3/2
f 227/3/2 224/3/2 228/3/2
f 229/3/2 230/3/2 233/3/2
f 233/3/2 230/3/2 234/3/2
f 231/3/2 232/3/2 235/3/2
f 235/3/2 232/3/2 236/3/2
f 239/3/3 238/3/3 237/3/3
f 240/3/3 238/3/3 239/3/3
f 243/3/3 242/3/3 241/3/3
f 244/3/3 242/3/3 243/3/3
f 249/3/3 246/3/3 245/3/3
f 250/3/3 246/3/3 249/3/3
f 253/3/3 252/3/3 251/3/3
f 254/3/3 252/3/3 253/3/3
f 257/3/3 256/3/3 255/3/3
f 258/3/3 256/3/3 257/3/3
f 259/3/3 248/3/3 247/3/3
f 260/3/3 248/3/3 259/3/3
f 263/3/3 262/3/3 261/3/3
f 264/3/3 262/3/3 263/3/3
f 267/3/3 266/3/3 265/3/3
f 268/3/3 266/3/3 267/3/3
f 274/3/3 273/3/3 272/3/3
f 275/3/3 273/3/3 274/3/3
f 276/1/3 269/1/3 268/1/3
f 277/1/3 269/1/3 276/1/3
f 278/1/3 271/1/3 270/1/3
f 282/1/3 278/1/3 277/1/3
f 283/1/3 271/1/3 278/1/3
f 283/1/3 278/1/3 282/1/3
f 284/1/3 280/1/3 279/1/3
f 285/1/3 280/1/3 284/1/3
f 289/1/3 282/1/3 281/1/3
f 290/1/3 282/1/3 289/1/3
f 291/1/3 271/1/3 283/1/3
f 292/1/3 271/1/3 291/1/3
f 293/3/3 287/3/3 286/3/3
f 294/3/3 287/3/3 293/3/3
f 295/3/3 289/3/3 288/3/3
f 296/3/3 289/3/3 295/3/3
f 299/3/3 298/3/3 297/3/3
f 300/3/3 298/3/3 299/3/3
f 306/1/3 302/1/3 301/1/3
f 306/3/3 303/3/3 302/3/3
f 307/3/3 303/3/3 306/3/3
f 308/2/3 305/2/3 304/2/3
f 309/2/3 305/2/3 308/2/3
f 310/1/3 306/1/3 301/1/3
f 312/1/3 310/1/3 301/1/3
f 313/3/3 311/3/3 310/3/3
f 313/1/3 310/1/3 312/1/3
f 314/3/3 311/3/3 313/3/3
f 317/3/3 316/3/3 315/3/3
f 318/3/3 316/3/3 317/3/3
f 321/1/3 320/1/3 319/1/3
f 322/1/3 320/1/3 321/1/3
f 326/1/3 323/1/3 322/1/3
f 327/3/3 324/3/3 323/3/3
f 327/1/3 323/1/3 326/1/3
f 328/3/3 324/3/3 327/3/3
f 329/1/3 326/1/3 325/1/3
f 330/1/3 326/1/3 329/1/3
f 336/3/3 332/3/3 331/3/3
f 337/3/3 332/3/3 336/3/3
f 338/3/3 334/3/3 333/3/3
f 339/3/3 334/3/3 338/3/3
f 340/1/3 336/1/3 335/1/3
f 341/1/3 336/1/3 340/1/3
f 344/1/3 343/1/3 342/1/3
f 345/1/3 343/1/3 344/1/3
f 349/3/3 346/3/3 345/3/3
f 350/3/3 346/3/3 349/3/3
f 351/3/3 348/3/3 347/3/3
f 352/3/3 348/3/3 351/3/3
f 353/3/4 354/3/4 358/3/4
f 358/3/4 354/3/4 359/3/4
f 355/3/4 356/3/4 360/3/4
f 360/3/4 356/3/4 361/3/4
f 357/1/4 358/1/4 362/1/4
f 362/1/4 358/1/4 363/1/4
f 364/1/4 365/1/4 366/1/4
f 366/1/4 365/1/4 367/1/4
f 367/3/4 368/3/4 371/3/4
f 371/3/4 368/3/4 372/3/4
f 369/3/4 370/3/4 373/3/4
f 373/3/4 370/3/4 374/3/4
f 375/1/4 376/1/4 377/1/4
f 377/1/4 376/1/4 378/1/4
f 378/1/4 379/1/4 382/1/4
f 379/3/4 380/3/4 383/3/4
f 382/1/4 379/1/4 383/1/4
f 383/3/4 380/3/4 384/3/4
f 381/1/4 382/1/4 385/1/4
f 385/1/4 382/1/4 386/1/4
f 387/3/4 388/3/4 389/3/4
f 389/3/4 388/3/4 390/3/4
f 391/1/4 392/1/4 396/1/4
f 392/3/4 393/3/4 396/3/4
f 396/3/4 393/3/4 397/3/4
f 394/2/4 395/2/4 398/2/4
f 398/2/4 395/2/4 399/2/4
f 391/1/4 396/1/4 400/1/4
f 391/1/4 400/1/4 402/1/4
f 400/3/4 401/3/4 403/3/4
f 402/1/4 400/1/4 403/1/4
f 403/3/4 401/3/4 404/3/4
f 405/3/4 406/3/4 407/3/4
f 407/3/4 406/3/4 408/3/4
f 409/3/4 410/3/4 411/3/4
f 411/3/4 410/3/4 412/3/4
f 416/3/4 417/3/4 418/3/4
f 418/3/4 417/3/4 419/3/4
f 412/1/4 413/1/4 420/1/4
f 420/1/4 413/1/4 421/1/4
f 414/1/4 415/1/4 422/1/4
f 421/1/4 422/1/4 426/1/4
f 422/1/4 415/1/4 427/1/4
f 426/1/4 422/1/4 427/1/4
f 423/1/4 424/1/4 428/1/4
f 428/1/4 424/1/4 429/1/4
f 425/1/4 426/1/4 433/1/4
f 433/1/4 426/1/4 434/1/4
f 427/1/4 415/1/4 435/1/4
f 435/1/4 415/1/4 436/1/4
f 430/3/4 431/3/4 437/3/4
f 437/3/4 431/3/4 438/3/4
f 432/3/4 433/3/4 439/3/4
f 439/3/4 433/3/4 440/3/4
f 441/3/4 442/3/4 445/3/4
f 445/3/4 442/3/4 446/3/4
f 447/3/4 448/3/4 449/3/4
f 449/3/4 448/3/4 450/3/4
f 451/3/4 452/3/4 453/3/4
f 453/3/4 452/3/4 454/3/4
f 443/3/4 444/3/4 455/3/4
f 455/3/4 444/3/4 456/3/4
f 457/3/4 458/3/4 459/3/4
f 459/3/4 458/3/4 460/3/4
f 461/3/4 462/3/4 463/3/4
f 463/3/4 462/3/4 464/3/4
f 465/3/4 466/3/4 467/3/4
f 467/3/4 466/3/4 468/3/4
f 472/3/5 470/3/5 469/3/5
f 473/3/5 470/3/5 472/3/5
f 474/3/5 470/3/5 473/3/5
f 475/3/5 470/3/5 474/3/5
f 477/1/5 473/1/5 472/1/5
f 477/3/5 474/3/5 473/3/5
f 478/1/5 475/1/5 474/1/5
f 478/3/5 474/3/5 477/3/5
f 479/3/5 472/3/5 471/3/5
f 479/1/5 477/1/5 472/1/5
f 479/1/5 478/1/5 477/1/5
f 480/1/5 478/1/5 479/1/5
f 481/1/5 475/1/5 478/1/5
f 481/1/5 478/1/5 480/1/5
f 482/3/5 476/3/5 475/3/5
f 482/1/5 475/1/5 481/1/5
f 483/3/5 480/3/5 479/3/5
f 483/3/5 479/3/5 471/3/5
f 484/1/5 481/1/5 480/1/5
f 484/3/5 480/3/5 483/3/5
f 485/3/5 482/3/5 481/3/5
f 485/1/5 481/1/5 484/1/5
f 486/3/5 476/3/5 482/3/5
f 486/3/5 482/3/5 485/3/5
f 487/1/5 485/1/5 484/1/5
f 487/1/5 484/1/5 483/1/5
f 487/1/5 486/1/5 485/1/5
f 488/1/5 486/1/5 487/1/5
f 489/3/5 483/3/5 471/3/5
f 490/1/5 487/1/5 483/1/5
f 490/3/5 483/3/5 489/3/5
f 491/3/5 488/3/5 487/3/5
f 491/1/5 487/1/5 490/1/5
f 492/1/5 486/1/5 488/1/5
f 492/3/5 488/3/5 491/3/5
f 493/3/5 476/3/5 486/3/5
f 493/1/5 486/1/5 492/1/5
f 494/3/5 476/3/5 493/3/5
f 495/3/5 492/3/5 491/3/5
f 495/3/5 491/3/5 490/3/5
f 495/3/5 493/3/5 492/3/5
f 496/3/5 493/3/5 495/3/5
f 502/3/5 498/3/5 497/3/5
f 503/3/5 498/3/5 502/3/5
f 506/3/5 500/3/5 499/3/5
f 507/3/5 500/3/5 506/3/5
f 509/3/5 504/3/5 503/3/5
f 509/3/5 502/3/5 501/3/5
f 509/3/5 503/3/5 502/3/5
f 510/3/5 504/3/5 509/3/5
f 511/3/5 508/3/5 507/3/5
f 511/3/5 507/3/5 506/3/5
f 511/3/5 506/3/5 505/3/5
f 512/3/5 508/3/5 511/3/5
f 513/1/5 511/1/5 510/1/5
f 514/1/5 511/1/5 513/1/5
f 515/3/5 509/3/5 501/3/5
f 516/3/5 509/3/5 515/3/5
f 519/3/5 508/3/5 512/3/5
f 520/3/5 508/3/5 519/3/5
f 522/1/5 517/1/5 516/1/5
f 523/1/5 517/1/5 522/1/5
f 524/1/5 519/1/5 518/1/5
f 525/1/5 519/1/5 524/1/5
f 529/3/5 522/3/5 521/3/5
f 530/1/5 528/1/5 527/1/5
f 531/1/5 528/1/5 530/1/5
f 532/3/5 526/3/5 525/3/5
f 533/3/5 529/3/5 521/3/5
f 533/3/5 530/3/5 529/3/5
f 534/3/5 530/3/5 533/3/5
f 535/3/5 530/3/5 534/3/5
f 536/3/5 530/3/5 535/3/5
f 537/3/5 532/3/5 531/3/5
f 538/3/5 532/3/5 537/3/5
f 539/3/5 526/3/5 532/3/5
f 539/3/5 532/3/5 538/3/5
f 540/3/5 526/3/5 539/3/5
f 541/3/5 535/3/5 534/3/5
f 542/3/5 535/3/5 541/3/5
f 543/3/5 539/3/5 538/3/5
f 544/3/5 539/3/5 543/3/5
f 552/3/5 546/3/5 545/3/5
f 553/3/5 546/3/5 552/3/5
f 554/1/5 548/1/5 547/1/5
f 555/1/5 548/1/5 554/1/5
f 556/3/5 550/3/5 549/3/5
f 557/3/5 550/3/5 556/3/5
f 559/3/5 553/3/5 552/3/5
f 559/3/5 552/3/5 551/3/5
f 560/3/5 553/3/5 559/3/5
f 561/3/5 558/3/5 557/3/5
f 561/3/5 557/3/5 556/3/5
f 562/3/5 558/3/5 561/3/5
f 564/3/5 553/3/5 560/3/5
f 565/3/5 561/3/5 556/3/5
f 567/3/5 564/3/5 563/3/5
f 568/3/5 553/3/5 564/3/5
f 568/3/5 564/3/5 567/3/5
f 569/3/5 553/3/5 568/3/5
f 572/3/5 566/3/5 565/3/5
f 572/3/5 565/3/5 556/3/5
f 573/3/5 566/3/5 572/3/5
f 574/3/5 566/3/5 573/3/5
f 575/3/5 569/3/5 568/3/5
f 576/3/5 569/3/5 575/3/5
f 577/1/5 571/1/5 570/1/5
f 578/1/5 571/1/5 577/1/5
f 579/3/5 573/3/5 572/3/5
f 580/3/5 573/3/5 579/3/5
f 581/3/6 582/3/6 584/3/6
f 584/3/6 582/3/6 585/3/6
f 585/3/6 582/3/6 586/3/6
f 586/3/6 582/3/6 587/3/6
f 585/3/6 586/3/6 589/3/6
f 589/3/6 586/3/6 590/3/6
f 583/3/6 584/3/6 591/3/6
f 587/3/6 588/3/6 594/3/6
f 591/3/6 592/3/6 595/3/6
f 583/3/6 591/3/6 595/3/6
f 595/3/6 592/3/6 596/3/6
f 593/3/6 594/3/6 597/3/6
f 594/3/6 588/3/6 598/3/6
f 597/3/6 594/3/6 598/3/6
f 583/3/6 595/3/6 601/3/6
f 601/3/6 595/3/6 602/3/6
f 599/3/6 600/3/6 603/3/6
f 603/3/6 600/3/6 604/3/6
f 598/3/6 588/3/6 605/3/6
f 605/3/6 588/3/6 606/3/6
f 603/3/6 604/3/6 607/3/6
f 604/3/6 605/3/6 607/3/6
f 602/3/6 603/3/6 607/3/6
f 607/3/6 605/3/6 608/3/6
f 609/3/6 610/3/6 614/3/6
f 614/3/6 610/3/6 615/3/6
f 611/3/6 612/3/6 618/3/6
f 618/3/6 612/3/6 619/3/6
f 615/3/6 616/3/6 621/3/6
f 613/3/6 614/3/6 621/3/6
f 614/3/6 615/3/6 621/3/6
f 621/3/6 616/3/6 622/3/6
f 619/3/6 620/3/6 623/3/6
f 618/3/6 619/3/6 623/3/6
f 617/3/6 618/3/6 623/3/6
f 623/3/6 620/3/6 624/3/6
f 613/3/6 621/3/6 625/3/6
f 625/3/6 621/3/6 626/3/6
f 624/3/6 620/3/6 627/3/6
f 627/3/6 620/3/6 628/3/6
f 629/3/6 630/3/6 633/3/6
f 631/3/6 632/3/6 636/3/6
f 633/3/6 634/3/6 637/3/6
f 629/3/6 633/3/6 637/3/6
f 637/3/6 634/3/6 638/3/6
f 638/3/6 634/3/6 639/3/6
f 639/3/6 634/3/6 640/3/6
f 635/3/6 636/3/6 641/3/6
f 641/3/6 636/3/6 642/3/6
f 636/3/6 632/3/6 643/3/6
f 642/3/6 636/3/6 643/3/6
f 643/3/6 632/3/6 644/3/6
f 638/3/6 639/3/6 645/3/6
f 645/3/6 639/3/6 646/3/6
f 642/3/6 643/3/6 647/3/6
f 647/3/6 643/3/6 648/3/6
f 649/1/6 650/1/6 651/1/6
f 651/1/6 650/1/6 652/1/6
f 649/1/6 651/1/6 653/1/6
f 652/1/6 650/1/6 654/1/6
f 649/1/6 653/1/6 655/1/6
f 653/1/6 654/1/6 655/1/6
f 654/1/6 650/1/6 656/1/6
f 655/1/6 654/1/6 656/1/6
f 657/3/6 658/3/6 662/3/6
f 662/3/6 658/3/6 663/3/6
f 659/3/6 660/3/6 666/3/6
f 666/3/6 660/3/6 667/3/6
f 663/3/6 664/3/6 669/3/6
f 661/3/6 662/3/6 669/3/6
f 662/3/6 663/3/6 669/3/6
f 669/3/6 664/3/6 670/3/6
f 670/3/6 664/3/6 671/3/6
f 671/3/6 664/3/6 672/3/6
f 667/3/6 668/3/6 673/3/6
f 666/3/6 667/3/6 673/3/6
f 665/3/6 666/3/6 673/3/6
f 673/3/6 668/3/6 674/3/6
f 674/3/6 668/3/6 675/3/6
f 675/3/6 668/3/6 676/3/6
f 670/3/6 671/3/6 678/3/6
f 678/3/6 671/3/6 679/3/6
f 674/3/6 675/3/6 682/3/6
f 682/3/6 675/3/6 683/3/6
f 679/3/6 680/3/6 685/3/6
f 677/3/6 678/3/6 685/3/6
f 678/3/6 679/3/6 685/3/6
f 685/3/6 680/3/6 686/3/6
f 686/3/6 680/3/6 687/3/6
f 687/3/6 680/3/6 688/3/6
f 683/3/6 684/3/6 689/3/6
f 682/3/6 683/3/6 689/3/6
f 681/3/6 682/3/6 689/3/6
f 689/3/6 684/3/6 690/3/6
f 690/3/6 684/3/6 691/3/6
f 691/3/6 684/3/6 692/3/6
f 686/3/6 687/3/6 693/3/6
f 693/3/6 687/3/6 694/3/6
f 690/3/6 691/3/6 695/3/6
f 695/3/6 691/3/6 696/3/6
f 697/1/6 698/1/6 700/1/6
f 700/1/6 698/1/6 701/1/6
f 699/1/6 700/1/6 703/1/6
f 703/1/6 700/1/6 704/1/6
f 701/1/6 702/1/6 705/1/6
f 705/1/6 702/1/6 706/1/6
f 704/1/6 705/1/6 707/1/6
f 707/1/6 705/1/6 708/1/6
f 709/3/6 710/3/6 711/3/6
f 711/3/6 710/3/6 712/3/6
