# MagicaVoxel @ Ephtracy

# group
o 

# material
mtllib bench.mtl
usemtl palette

# normals
vn -1 0 0
vn 1 0 0
vn 0 0 1
vn 0 0 -1
vn 0 -1 0
vn 0 1 0

# texcoords
vt 0.306641 0.5
vt 0.318359 0.5
vt 0.322266 0.5

# verts
v -0.3 0 0.3
v -0.3 0 0.2
v -0.3 0 -0.6
v -0.3 0 -0.7
v -0.3 0.2 0.2
v -0.3 0.2 -0.6
v -0.3 0.3 0.2
v -0.3 0.3 -0.6
v -0.3 0.4 0.2
v -0.3 0.4 -0.6
v -0.3 0.5 0.3
v -0.3 0.5 0.2
v -0.3 0.5 -0.6
v -0.3 0.5 -0.7
v -0.2 0.5 0.3
v -0.2 0.5 0.2
v -0.2 0.5 -0.6
v -0.2 0.5 -0.7
v -0.2 0.6 0.3
v -0.2 0.6 0.2
v -0.2 0.6 -0.6
v -0.2 0.6 -0.7
v 0 0.2 0.1
v 0 0.2 -0.5
v 0 0.3 0.1
v 0 0.3 -0.5
v -0.2 0.2 0.1
v -0.2 0.2 -0.5
v -0.2 0.3 0.1
v -0.2 0.3 -0.5
v 0 0.5 0.3
v 0 0.5 0.2
v 0 0.5 -0.6
v 0 0.5 -0.7
v 0 0.6 0.3
v 0 0.6 0.2
v 0 0.6 -0.6
v 0 0.6 -0.7
v 0.1 0 0.3
v 0.1 0 0.2
v 0.1 0 -0.6
v 0.1 0 -0.7
v 0.1 0.2 0.2
v 0.1 0.2 -0.6
v 0.1 0.3 0.2
v 0.1 0.3 -0.6
v 0.1 0.4 0.2
v 0.1 0.4 -0.6
v 0.1 0.5 0.3
v 0.1 0.5 0.2
v 0.1 0.5 -0.6
v 0.1 0.5 -0.7
v -0.3 0 0.3
v -0.3 0.5 0.3
v -0.2 0.1 0.3
v -0.2 0.4 0.3
v -0.2 0.5 0.3
v -0.2 0.6 0.3
v 0 0.1 0.3
v 0 0.4 0.3
v 0 0.5 0.3
v 0 0.6 0.3
v 0.1 0 0.3
v 0.1 0.5 0.3
v -0.2 0.2 -0.5
v -0.2 0.3 -0.5
v 0 0.2 -0.5
v 0 0.3 -0.5
v -0.3 0 -0.6
v -0.3 0.2 -0.6
v -0.3 0.4 -0.6
v -0.3 0.5 -0.6
v -0.2 0.1 -0.6
v -0.2 0.2 -0.6
v -0.2 0.4 -0.6
v -0.2 0.5 -0.6
v -0.2 0.6 -0.6
v 0 0.1 -0.6
v 0 0.2 -0.6
v 0 0.4 -0.6
v 0 0.5 -0.6
v 0 0.6 -0.6
v 0.1 0 -0.6
v 0.1 0.2 -0.6
v 0.1 0.4 -0.6
v 0.1 0.5 -0.6
v -0.3 0 0.2
v -0.3 0.2 0.2
v -0.3 0.4 0.2
v -0.3 0.5 0.2
v -0.2 0.1 0.2
v -0.2 0.2 0.2
v -0.2 0.4 0.2
v -0.2 0.5 0.2
v -0.2 0.6 0.2
v 0 0.1 0.2
v 0 0.2 0.2
v 0 0.4 0.2
v 0 0.5 0.2
v 0 0.6 0.2
v 0.1 0 0.2
v 0.1 0.2 0.2
v 0.1 0.4 0.2
v 0.1 0.5 0.2
v -0.2 0.2 0.1
v -0.2 0.3 0.1
v 0 0.2 0.1
v 0 0.3 0.1
v -0.3 0 -0.7
v -0.3 0.5 -0.7
v -0.2 0.1 -0.7
v -0.2 0.4 -0.7
v -0.2 0.5 -0.7
v -0.2 0.6 -0.7
v 0 0.1 -0.7
v 0 0.4 -0.7
v 0 0.5 -0.7
v 0 0.6 -0.7
v 0.1 0 -0.7
v 0.1 0.5 -0.7
v -0.3 0 0.3
v 0.1 0 0.3
v -0.3 0 0.2
v 0.1 0 0.2
v -0.3 0 -0.6
v 0.1 0 -0.6
v -0.3 0 -0.7
v 0.1 0 -0.7
v -0.3 0.2 0.2
v -0.2 0.2 0.2
v 0 0.2 0.2
v 0.1 0.2 0.2
v -0.2 0.2 0.1
v 0 0.2 0.1
v -0.2 0.2 -0.5
v 0 0.2 -0.5
v -0.3 0.2 -0.6
v -0.2 0.2 -0.6
v 0 0.2 -0.6
v 0.1 0.2 -0.6
v -0.2 0.3 0.1
v 0 0.3 0.1
v -0.2 0.3 -0.5
v 0 0.3 -0.5
v -0.3 0.4 0.2
v -0.2 0.4 0.2
v 0 0.4 0.2
v 0.1 0.4 0.2
v -0.3 0.4 -0.6
v -0.2 0.4 -0.6
v 0 0.4 -0.6
v 0.1 0.4 -0.6
v -0.3 0.5 0.3
v -0.2 0.5 0.3
v 0 0.5 0.3
v 0.1 0.5 0.3
v -0.3 0.5 0.2
v -0.2 0.5 0.2
v 0 0.5 0.2
v 0.1 0.5 0.2
v -0.3 0.5 -0.6
v -0.2 0.5 -0.6
v 0 0.5 -0.6
v 0.1 0.5 -0.6
v -0.3 0.5 -0.7
v -0.2 0.5 -0.7
v 0 0.5 -0.7
v 0.1 0.5 -0.7
v -0.2 0.6 0.3
v 0 0.6 0.3
v -0.2 0.6 0.2
v 0 0.6 0.2
v -0.2 0.6 -0.6
v 0 0.6 -0.6
v -0.2 0.6 -0.7
v 0 0.6 -0.7

# faces
f 5/3/1 2/3/1 1/3/1
f 6/3/1 4/3/1 3/3/1
f 7/3/1 5/3/1 1/3/1
f 7/1/1 6/1/1 5/1/1
f 8/3/1 4/3/1 6/3/1
f 8/1/1 6/1/1 7/1/1
f 9/3/1 7/3/1 1/3/1
f 9/2/1 8/2/1 7/2/1
f 10/3/1 4/3/1 8/3/1
f 10/2/1 8/2/1 9/2/1
f 11/3/1 9/3/1 1/3/1
f 12/3/1 9/3/1 11/3/1
f 13/3/1 4/3/1 10/3/1
f 14/3/1 4/3/1 13/3/1
f 19/3/1 16/3/1 15/3/1
f 20/3/1 16/3/1 19/3/1
f 21/3/1 18/3/1 17/3/1
f 22/3/1 18/3/1 21/3/1
f 25/1/1 24/1/1 23/1/1
f 26/1/1 24/1/1 25/1/1
f 27/1/2 28/1/2 29/1/2
f 29/1/2 28/1/2 30/1/2
f 31/3/2 32/3/2 35/3/2
f 35/3/2 32/3/2 36/3/2
f 33/3/2 34/3/2 37/3/2
f 37/3/2 34/3/2 38/3/2
f 39/3/2 40/3/2 43/3/2
f 41/3/2 42/3/2 44/3/2
f 39/3/2 43/3/2 45/3/2
f 43/1/2 44/1/2 45/1/2
f 44/3/2 42/3/2 46/3/2
f 45/1/2 44/1/2 46/1/2
f 39/3/2 45/3/2 47/3/2
f 45/2/2 46/2/2 47/2/2
f 46/3/2 42/3/2 48/3/2
f 47/2/2 46/2/2 48/2/2
f 39/3/2 47/3/2 49/3/2
f 49/3/2 47/3/2 50/3/2
f 48/3/2 42/3/2 51/3/2
f 51/3/2 42/3/2 52/3/2
f 55/3/3 54/3/3 53/3/3
f 56/3/3 54/3/3 55/3/3
f 57/3/3 54/3/3 56/3/3
f 59/3/3 55/3/3 53/3/3
f 59/1/3 56/1/3 55/1/3
f 60/3/3 58/3/3 57/3/3
f 60/1/3 56/1/3 59/1/3
f 60/3/3 57/3/3 56/3/3
f 61/3/3 58/3/3 60/3/3
f 62/3/3 58/3/3 61/3/3
f 63/3/3 59/3/3 53/3/3
f 63/3/3 60/3/3 59/3/3
f 63/3/3 61/3/3 60/3/3
f 64/3/3 61/3/3 63/3/3
f 67/2/3 66/2/3 65/2/3
f 68/2/3 66/2/3 67/2/3
f 73/3/3 70/3/3 69/3/3
f 74/3/3 70/3/3 73/3/3
f 75/3/3 72/3/3 71/3/3
f 76/3/3 72/3/3 75/3/3
f 78/1/3 74/1/3 73/1/3
f 78/3/3 73/3/3 69/3/3
f 79/1/3 74/1/3 78/1/3
f 80/3/3 77/3/3 76/3/3
f 80/3/3 76/3/3 75/3/3
f 81/3/3 77/3/3 80/3/3
f 82/3/3 77/3/3 81/3/3
f 83/3/3 79/3/3 78/3/3
f 83/3/3 78/3/3 69/3/3
f 84/3/3 79/3/3 83/3/3
f 85/3/3 81/3/3 80/3/3
f 86/3/3 81/3/3 85/3/3
f 87/3/4 88/3/4 91/3/4
f 91/3/4 88/3/4 92/3/4
f 89/3/4 90/3/4 93/3/4
f 93/3/4 90/3/4 94/3/4
f 91/1/4 92/1/4 96/1/4
f 87/3/4 91/3/4 96/3/4
f 96/1/4 92/1/4 97/1/4
f 94/3/4 95/3/4 98/3/4
f 93/3/4 94/3/4 98/3/4
f 98/3/4 95/3/4 99/3/4
f 99/3/4 95/3/4 100/3/4
f 96/3/4 97/3/4 101/3/4
f 87/3/4 96/3/4 101/3/4
f 101/3/4 97/3/4 102/3/4
f 98/3/4 99/3/4 103/3/4
f 103/3/4 99/3/4 104/3/4
f 105/2/4 106/2/4 107/2/4
f 107/2/4 106/2/4 108/2/4
f 109/3/4 110/3/4 111/3/4
f 111/3/4 110/3/4 112/3/4
f 112/3/4 110/3/4 113/3/4
f 109/3/4 111/3/4 115/3/4
f 111/1/4 112/1/4 115/1/4
f 113/3/4 114/3/4 116/3/4
f 115/1/4 112/1/4 116/1/4
f 112/3/4 113/3/4 116/3/4
f 116/3/4 114/3/4 117/3/4
f 117/3/4 114/3/4 118/3/4
f 109/3/4 115/3/4 119/3/4
f 115/3/4 116/3/4 119/3/4
f 116/3/4 117/3/4 119/3/4
f 119/3/4 117/3/4 120/3/4
f 123/3/5 122/3/5 121/3/5
f 124/3/5 122/3/5 123/3/5
f 127/3/5 126/3/5 125/3/5
f 128/3/5 126/3/5 127/3/5
f 133/1/5 130/1/5 129/1/5
f 133/2/5 131/2/5 130/2/5
f 134/1/5 132/1/5 131/1/5
f 134/2/5 131/2/5 133/2/5
f 135/1/5 133/1/5 129/1/5
f 136/1/5 132/1/5 134/1/5
f 137/1/5 135/1/5 129/1/5
f 138/2/5 136/2/5 135/2/5
f 138/1/5 135/1/5 137/1/5
f 139/1/5 132/1/5 136/1/5
f 139/2/5 136/2/5 138/2/5
f 140/1/5 132/1/5 139/1/5
f 143/3/5 142/3/5 141/3/5
f 144/3/5 142/3/5 143/3/5
f 145/2/6 146/2/6 149/2/6
f 146/3/6 147/3/6 150/3/6
f 149/2/6 146/2/6 150/2/6
f 147/2/6 148/2/6 151/2/6
f 150/3/6 147/3/6 151/3/6
f 151/2/6 148/2/6 152/2/6
f 153/3/6 154/3/6 157/3/6
f 157/3/6 154/3/6 158/3/6
f 155/3/6 156/3/6 159/3/6
f 159/3/6 156/3/6 160/3/6
f 161/3/6 162/3/6 165/3/6
f 165/3/6 162/3/6 166/3/6
f 163/3/6 164/3/6 167/3/6
f 167/3/6 164/3/6 168/3/6
f 169/3/6 170/3/6 171/3/6
f 171/3/6 170/3/6 172/3/6
f 173/3/6 174/3/6 175/3/6
f 175/3/6 174/3/6 176/3/6
