# MagicaVoxel @ Ephtracy

# group
o 

# material
mtllib house.mtl
usemtl palette

# normals
vn -1 0 0
vn 1 0 0
vn 0 0 1
vn 0 0 -1
vn 0 -1 0
vn 0 1 0

# texcoords
vt 0.0644531 0.5
vt 0.205078 0.5
vt 0.994141 0.5

# verts
v -0.5 0.4 0.3
v -0.5 0.4 0.2
v -0.5 0.4 -0.2
v -0.5 0.4 -0.3
v -0.5 0.5 0.4
v -0.5 0.5 0.3
v -0.5 0.5 0.2
v -0.5 0.5 -0.2
v -0.5 0.5 -0.3
v -0.5 0.5 -0.4
v -0.5 0.6 0.4
v -0.5 0.6 -0.4
v -0.4 0 0.3
v -0.4 0 -0.3
v -0.4 0.2 0.1
v -0.4 0.2 -0.1
v -0.4 0.4 0.4
v -0.4 0.4 0.3
v -0.4 0.4 0.2
v -0.4 0.4 0.1
v -0.4 0.4 -0.1
v -0.4 0.4 -0.2
v -0.4 0.4 -0.3
v -0.4 0.4 -0.4
v -0.4 0.5 0.4
v -0.4 0.5 0.3
v -0.4 0.5 0.2
v -0.4 0.5 -0.2
v -0.4 0.5 -0.3
v -0.4 0.5 -0.4
v -0.4 0.6 0.3
v -0.4 0.6 -0.3
v -0.4 0.7 0.3
v -0.4 0.7 -0.3
v -0.3 0.7 0.2
v -0.3 0.7 -0.2
v -0.3 0.8 0.2
v -0.3 0.8 -0.2
v 0 0.4 0.2
v 0 0.4 0.1
v 0 0.4 -0.1
v 0 0.4 -0.2
v 0 0.5 0.2
v 0 0.5 0.1
v 0 0.5 -0.1
v 0 0.5 -0.2
v 0.1 0.1 0.2
v 0.1 0.1 -0.2
v 0.1 0.2 0.1
v 0.1 0.2 -0.1
v 0.1 0.4 0.4
v 0.1 0.4 0.3
v 0.1 0.4 0.2
v 0.1 0.4 0.1
v 0.1 0.4 -0.1
v 0.1 0.4 -0.2
v 0.1 0.4 -0.3
v 0.1 0.4 -0.4
v 0.1 0.5 0.4
v 0.1 0.5 0.3
v 0.1 0.5 0.1
v 0.1 0.5 -0.1
v 0.1 0.5 -0.3
v 0.1 0.5 -0.4
v -0.3 0.1 0.2
v -0.3 0.1 -0.2
v -0.3 0.2 0.1
v -0.3 0.2 -0.1
v -0.3 0.4 0.4
v -0.3 0.4 0.3
v -0.3 0.4 0.2
v -0.3 0.4 0.1
v -0.3 0.4 -0.1
v -0.3 0.4 -0.2
v -0.3 0.4 -0.3
v -0.3 0.4 -0.4
v -0.3 0.5 0.4
v -0.3 0.5 0.3
v -0.3 0.5 0.1
v -0.3 0.5 -0.1
v -0.3 0.5 -0.3
v -0.3 0.5 -0.4
v -0.2 0.4 0.2
v -0.2 0.4 0.1
v -0.2 0.4 -0.1
v -0.2 0.4 -0.2
v -0.2 0.5 0.2
v -0.2 0.5 0.1
v -0.2 0.5 -0.1
v -0.2 0.5 -0.2
v 0.1 0.7 0.2
v 0.1 0.7 -0.2
v 0.1 0.8 0.2
v 0.1 0.8 -0.2
v 0.2 0 0.3
v 0.2 0 -0.3
v 0.2 0.2 0.1
v 0.2 0.2 -0.1
v 0.2 0.4 0.4
v 0.2 0.4 0.3
v 0.2 0.4 0.2
v 0.2 0.4 0.1
v 0.2 0.4 -0.1
v 0.2 0.4 -0.2
v 0.2 0.4 -0.3
v 0.2 0.4 -0.4
v 0.2 0.5 0.4
v 0.2 0.5 0.3
v 0.2 0.5 0.2
v 0.2 0.5 -0.2
v 0.2 0.5 -0.3
v 0.2 0.5 -0.4
v 0.2 0.6 0.3
v 0.2 0.6 -0.3
v 0.2 0.7 0.3
v 0.2 0.7 -0.3
v 0.3 0.4 0.3
v 0.3 0.4 0.2
v 0.3 0.4 -0.2
v 0.3 0.4 -0.3
v 0.3 0.5 0.4
v 0.3 0.5 0.3
v 0.3 0.5 0.2
v 0.3 0.5 -0.2
v 0.3 0.5 -0.3
v 0.3 0.5 -0.4
v 0.3 0.6 0.4
v 0.3 0.6 -0.4
v -0.5 0.5 0.4
v -0.5 0.6 0.4
v -0.4 0.4 0.4
v -0.4 0.5 0.4
v -0.3 0.4 0.4
v -0.3 0.5 0.4
v 0.1 0.4 0.4
v 0.1 0.5 0.4
v 0.2 0.4 0.4
v 0.2 0.5 0.4
v 0.3 0.5 0.4
v 0.3 0.6 0.4
v -0.5 0.4 0.3
v -0.5 0.5 0.3
v -0.4 0 0.3
v -0.4 0.4 0.3
v -0.4 0.5 0.3
v -0.4 0.6 0.3
v -0.4 0.7 0.3
v -0.3 0.4 0.3
v -0.3 0.5 0.3
v -0.2 0.1 0.3
v -0.2 0.4 0.3
v 0 0.1 0.3
v 0 0.4 0.3
v 0.1 0.4 0.3
v 0.1 0.5 0.3
v 0.2 0 0.3
v 0.2 0.4 0.3
v 0.2 0.5 0.3
v 0.2 0.6 0.3
v 0.2 0.7 0.3
v 0.3 0.4 0.3
v 0.3 0.5 0.3
v -0.3 0.7 0.2
v -0.3 0.8 0.2
v 0.1 0.7 0.2
v 0.1 0.8 0.2
v -0.3 0.4 -0.1
v -0.3 0.5 -0.1
v -0.2 0.4 -0.1
v -0.2 0.5 -0.1
v 0 0.4 -0.1
v 0 0.5 -0.1
v 0.1 0.4 -0.1
v 0.1 0.5 -0.1
v -0.5 0.4 -0.2
v -0.5 0.5 -0.2
v -0.4 0.4 -0.2
v -0.4 0.5 -0.2
v -0.3 0.1 -0.2
v -0.3 0.4 -0.2
v -0.2 0.4 -0.2
v -0.2 0.5 -0.2
v 0 0.4 -0.2
v 0 0.5 -0.2
v 0.1 0.1 -0.2
v 0.1 0.4 -0.2
v 0.2 0.4 -0.2
v 0.2 0.5 -0.2
v 0.3 0.4 -0.2
v 0.3 0.5 -0.2
v -0.5 0.4 0.2
v -0.5 0.5 0.2
v -0.4 0.4 0.2
v -0.4 0.5 0.2
v -0.3 0.1 0.2
v -0.3 0.4 0.2
v -0.2 0.1 0.2
v -0.2 0.4 0.2
v -0.2 0.5 0.2
v 0 0.1 0.2
v 0 0.4 0.2
v 0 0.5 0.2
v 0.1 0.1 0.2
v 0.1 0.4 0.2
v 0.2 0.4 0.2
v 0.2 0.5 0.2
v 0.3 0.4 0.2
v 0.3 0.5 0.2
v -0.3 0.4 0.1
v -0.3 0.5 0.1
v -0.2 0.4 0.1
v -0.2 0.5 0.1
v 0 0.4 0.1
v 0 0.5 0.1
v 0.1 0.4 0.1
v 0.1 0.5 0.1
v -0.3 0.7 -0.2
v -0.3 0.8 -0.2
v 0.1 0.7 -0.2
v 0.1 0.8 -0.2
v -0.5 0.4 -0.3
v -0.5 0.5 -0.3
v -0.4 0 -0.3
v -0.4 0.4 -0.3
v -0.4 0.5 -0.3
v -0.4 0.6 -0.3
v -0.4 0.7 -0.3
v -0.3 0.4 -0.3
v -0.3 0.5 -0.3
v 0.1 0.4 -0.3
v 0.1 0.5 -0.3
v 0.2 0 -0.3
v 0.2 0.4 -0.3
v 0.2 0.5 -0.3
v 0.2 0.6 -0.3
v 0.2 0.7 -0.3
v 0.3 0.4 -0.3
v 0.3 0.5 -0.3
v -0.5 0.5 -0.4
v -0.5 0.6 -0.4
v -0.4 0.4 -0.4
v -0.4 0.5 -0.4
v -0.3 0.4 -0.4
v -0.3 0.5 -0.4
v 0.1 0.4 -0.4
v 0.1 0.5 -0.4
v 0.2 0.4 -0.4
v 0.2 0.5 -0.4
v 0.3 0.5 -0.4
v 0.3 0.6 -0.4
v -0.4 0 0.3
v 0.2 0 0.3
v -0.4 0 -0.3
v 0.2 0 -0.3
v -0.4 0.4 0.4
v -0.3 0.4 0.4
v 0.1 0.4 0.4
v 0.2 0.4 0.4
v -0.5 0.4 0.3
v -0.4 0.4 0.3
v -0.3 0.4 0.3
v 0.1 0.4 0.3
v 0.2 0.4 0.3
v 0.3 0.4 0.3
v -0.5 0.4 0.2
v -0.4 0.4 0.2
v -0.3 0.4 0.2
v -0.2 0.4 0.2
v 0 0.4 0.2
v 0.1 0.4 0.2
v 0.2 0.4 0.2
v 0.3 0.4 0.2
v -0.3 0.4 0.1
v -0.2 0.4 0.1
v 0 0.4 0.1
v 0.1 0.4 0.1
v -0.3 0.4 -0.1
v -0.2 0.4 -0.1
v 0 0.4 -0.1
v 0.1 0.4 -0.1
v -0.5 0.4 -0.2
v -0.4 0.4 -0.2
v -0.3 0.4 -0.2
v -0.2 0.4 -0.2
v 0 0.4 -0.2
v 0.1 0.4 -0.2
v 0.2 0.4 -0.2
v 0.3 0.4 -0.2
v -0.5 0.4 -0.3
v -0.4 0.4 -0.3
v -0.3 0.4 -0.3
v 0.1 0.4 -0.3
v 0.2 0.4 -0.3
v 0.3 0.4 -0.3
v -0.4 0.4 -0.4
v -0.3 0.4 -0.4
v 0.1 0.4 -0.4
v 0.2 0.4 -0.4
v -0.5 0.5 0.4
v -0.4 0.5 0.4
v -0.3 0.5 0.4
v 0.1 0.5 0.4
v 0.2 0.5 0.4
v 0.3 0.5 0.4
v -0.5 0.5 0.3
v -0.4 0.5 0.3
v -0.3 0.5 0.3
v 0.1 0.5 0.3
v 0.2 0.5 0.3
v 0.3 0.5 0.3
v -0.5 0.5 0.2
v -0.4 0.5 0.2
v -0.2 0.5 0.2
v 0 0.5 0.2
v 0.2 0.5 0.2
v 0.3 0.5 0.2
v -0.3 0.5 0.1
v -0.2 0.5 0.1
v 0 0.5 0.1
v 0.1 0.5 0.1
v -0.3 0.5 -0.1
v -0.2 0.5 -0.1
v 0 0.5 -0.1
v 0.1 0.5 -0.1
v -0.5 0.5 -0.2
v -0.4 0.5 -0.2
v -0.2 0.5 -0.2
v 0 0.5 -0.2
v 0.2 0.5 -0.2
v 0.3 0.5 -0.2
v -0.5 0.5 -0.3
v -0.4 0.5 -0.3
v -0.3 0.5 -0.3
v 0.1 0.5 -0.3
v 0.2 0.5 -0.3
v 0.3 0.5 -0.3
v -0.5 0.5 -0.4
v -0.4 0.5 -0.4
v -0.3 0.5 -0.4
v 0.1 0.5 -0.4
v 0.2 0.5 -0.4
v 0.3 0.5 -0.4
v -0.3 0.1 0.2
v -0.2 0.1 0.2
v 0 0.1 0.2
v 0.1 0.1 0.2
v -0.3 0.1 -0.2
v 0.1 0.1 -0.2
v -0.5 0.6 0.4
v 0.3 0.6 0.4
v -0.4 0.6 0.3
v 0.2 0.6 0.3
v -0.4 0.6 -0.3
v 0.2 0.6 -0.3
v -0.5 0.6 -0.4
v 0.3 0.6 -0.4
v -0.4 0.7 0.3
v 0.2 0.7 0.3
v -0.3 0.7 0.2
v 0.1 0.7 0.2
v -0.3 0.7 -0.2
v 0.1 0.7 -0.2
v -0.4 0.7 -0.3
v 0.2 0.7 -0.3
v -0.3 0.8 0.2
v 0.1 0.8 0.2
v -0.3 0.8 -0.2
v 0.1 0.8 -0.2

# faces
f 6/1/1 2/1/1 1/1/1
f 7/1/1 2/1/1 6/1/1
f 8/1/1 4/1/1 3/1/1
f 9/1/1 4/1/1 8/1/1
f 11/1/1 7/1/1 6/1/1
f 11/1/1 10/1/1 9/1/1
f 11/1/1 9/1/1 8/1/1
f 11/1/1 8/1/1 7/1/1
f 11/1/1 6/1/1 5/1/1
f 12/1/1 10/1/1 11/1/1
f 15/2/1 14/2/1 13/2/1
f 16/2/1 14/2/1 15/2/1
f 18/2/1 15/2/1 13/2/1
f 19/2/1 15/2/1 18/2/1
f 20/3/1 16/3/1 15/3/1
f 20/2/1 15/2/1 19/2/1
f 21/2/1 14/2/1 16/2/1
f 21/3/1 16/3/1 20/3/1
f 22/2/1 14/2/1 21/2/1
f 23/2/1 14/2/1 22/2/1
f 25/1/1 18/1/1 17/1/1
f 26/1/1 18/1/1 25/1/1
f 27/2/1 20/2/1 19/2/1
f 27/2/1 22/2/1 21/2/1
f 27/2/1 21/2/1 20/2/1
f 28/2/1 22/2/1 27/2/1
f 29/1/1 24/1/1 23/1/1
f 30/1/1 24/1/1 29/1/1
f 33/1/1 32/1/1 31/1/1
f 34/1/1 32/1/1 33/1/1
f 37/1/1 36/1/1 35/1/1
f 38/1/1 36/1/1 37/1/1
f 43/2/1 40/2/1 39/2/1
f 44/2/1 40/2/1 43/2/1
f 45/2/1 42/2/1 41/2/1
f 46/2/1 42/2/1 45/2/1
f 49/2/1 48/2/1 47/2/1
f 50/2/1 48/2/1 49/2/1
f 53/2/1 49/2/1 47/2/1
f 54/3/1 50/3/1 49/3/1
f 54/2/1 49/2/1 53/2/1
f 55/2/1 48/2/1 50/2/1
f 55/3/1 50/3/1 54/3/1
f 56/2/1 48/2/1 55/2/1
f 59/1/1 52/1/1 51/1/1
f 60/1/1 52/1/1 59/1/1
f 61/2/1 55/2/1 54/2/1
f 62/2/1 55/2/1 61/2/1
f 63/1/1 58/1/1 57/1/1
f 64/1/1 58/1/1 63/1/1
f 65/2/2 66/2/2 67/2/2
f 67/2/2 66/2/2 68/2/2
f 65/2/2 67/2/2 71/2/2
f 67/3/2 68/3/2 72/3/2
f 71/2/2 67/2/2 72/2/2
f 68/2/2 66/2/2 73/2/2
f 72/3/2 68/3/2 73/3/2
f 73/2/2 66/2/2 74/2/2
f 69/1/2 70/1/2 77/1/2
f 77/1/2 70/1/2 78/1/2
f 72/2/2 73/2/2 79/2/2
f 79/2/2 73/2/2 80/2/2
f 75/1/2 76/1/2 81/1/2
f 81/1/2 76/1/2 82/1/2
f 83/2/2 84/2/2 87/2/2
f 87/2/2 84/2/2 88/2/2
f 85/2/2 86/2/2 89/2/2
f 89/2/2 86/2/2 90/2/2
f 91/1/2 92/1/2 93/1/2
f 93/1/2 92/1/2 94/1/2
f 95/2/2 96/2/2 97/2/2
f 97/2/2 96/2/2 98/2/2
f 95/2/2 97/2/2 100/2/2
f 100/2/2 97/2/2 101/2/2
f 97/3/2 98/3/2 102/3/2
f 101/2/2 97/2/2 102/2/2
f 98/2/2 96/2/2 103/2/2
f 102/3/2 98/3/2 103/3/2
f 103/2/2 96/2/2 104/2/2
f 104/2/2 96/2/2 105/2/2
f 99/1/2 100/1/2 107/1/2
f 107/1/2 100/1/2 108/1/2
f 101/2/2 102/2/2 109/2/2
f 103/2/2 104/2/2 109/2/2
f 102/2/2 103/2/2 109/2/2
f 109/2/2 104/2/2 110/2/2
f 105/1/2 106/1/2 111/1/2
f 111/1/2 106/1/2 112/1/2
f 113/1/2 114/1/2 115/1/2
f 115/1/2 114/1/2 116/1/2
f 117/1/2 118/1/2 122/1/2
f 122/1/2 118/1/2 123/1/2
f 119/1/2 120/1/2 124/1/2
f 124/1/2 120/1/2 125/1/2
f 122/1/2 123/1/2 127/1/2
f 125/1/2 126/1/2 127/1/2
f 124/1/2 125/1/2 127/1/2
f 123/1/2 124/1/2 127/1/2
f 121/1/2 122/1/2 127/1/2
f 127/1/2 126/1/2 128/1/2
f 132/1/3 130/1/3 129/1/3
f 133/1/3 132/1/3 131/1/3
f 134/1/3 130/1/3 132/1/3
f 134/1/3 132/1/3 133/1/3
f 136/1/3 130/1/3 134/1/3
f 137/1/3 136/1/3 135/1/3
f 138/1/3 130/1/3 136/1/3
f 138/1/3 136/1/3 137/1/3
f 139/1/3 130/1/3 138/1/3
f 140/1/3 130/1/3 139/1/3
f 144/1/3 142/1/3 141/1/3
f 145/1/3 142/1/3 144/1/3
f 148/2/3 144/2/3 143/2/3
f 150/2/3 148/2/3 143/2/3
f 150/2/3 149/2/3 148/2/3
f 151/2/3 149/2/3 150/2/3
f 152/2/3 150/2/3 143/2/3
f 152/3/3 151/3/3 150/3/3
f 153/2/3 149/2/3 151/2/3
f 153/3/3 151/3/3 152/3/3
f 154/2/3 153/2/3 152/2/3
f 154/2/3 149/2/3 153/2/3
f 155/2/3 149/2/3 154/2/3
f 156/2/3 152/2/3 143/2/3
f 156/2/3 154/2/3 152/2/3
f 157/2/3 154/2/3 156/2/3
f 159/1/3 147/1/3 146/1/3
f 160/1/3 147/1/3 159/1/3
f 161/1/3 158/1/3 157/1/3
f 162/1/3 158/1/3 161/1/3
f 165/1/3 164/1/3 163/1/3
f 166/1/3 164/1/3 165/1/3
f 169/2/3 168/2/3 167/2/3
f 170/2/3 168/2/3 169/2/3
f 173/2/3 172/2/3 171/2/3
f 174/2/3 172/2/3 173/2/3
f 177/1/3 176/1/3 175/1/3
f 178/1/3 176/1/3 177/1/3
f 181/2/3 180/2/3 179/2/3
f 183/2/3 181/2/3 179/2/3
f 183/2/3 182/2/3 181/2/3
f 184/2/3 182/2/3 183/2/3
f 185/2/3 183/2/3 179/2/3
f 186/2/3 183/2/3 185/2/3
f 189/1/3 188/1/3 187/1/3
f 190/1/3 188/1/3 189/1/3
f 191/1/4 192/1/4 193/1/4
f 193/1/4 192/1/4 194/1/4
f 195/2/4 196/2/4 197/2/4
f 197/2/4 196/2/4 198/2/4
f 197/3/4 198/3/4 200/3/4
f 198/2/4 199/2/4 201/2/4
f 200/3/4 198/3/4 201/3/4
f 201/2/4 199/2/4 202/2/4
f 200/2/4 201/2/4 203/2/4
f 203/2/4 201/2/4 204/2/4
f 205/1/4 206/1/4 207/1/4
f 207/1/4 206/1/4 208/1/4
f 209/2/4 210/2/4 211/2/4
f 211/2/4 210/2/4 212/2/4
f 213/2/4 214/2/4 215/2/4
f 215/2/4 214/2/4 216/2/4
f 217/1/4 218/1/4 219/1/4
f 219/1/4 218/1/4 220/1/4
f 221/1/4 222/1/4 224/1/4
f 224/1/4 222/1/4 225/1/4
f 223/2/4 224/2/4 228/2/4
f 223/2/4 228/2/4 230/2/4
f 228/2/4 229/2/4 230/2/4
f 230/2/4 229/2/4 231/2/4
f 223/2/4 230/2/4 232/2/4
f 232/2/4 230/2/4 233/2/4
f 226/1/4 227/1/4 235/1/4
f 235/1/4 227/1/4 236/1/4
f 233/1/4 234/1/4 237/1/4
f 237/1/4 234/1/4 238/1/4
f 239/1/4 240/1/4 242/1/4
f 241/1/4 242/1/4 243/1/4
f 242/1/4 240/1/4 244/1/4
f 243/1/4 242/1/4 244/1/4
f 244/1/4 240/1/4 246/1/4
f 245/1/4 246/1/4 247/1/4
f 246/1/4 240/1/4 248/1/4
f 247/1/4 246/1/4 248/1/4
f 248/1/4 240/1/4 249/1/4
f 249/1/4 240/1/4 250/1/4
f 253/2/5 252/2/5 251/2/5
f 254/2/5 252/2/5 253/2/5
f 260/1/5 256/1/5 255/1/5
f 261/1/5 256/1/5 260/1/5
f 262/1/5 258/1/5 257/1/5
f 263/1/5 258/1/5 262/1/5
f 265/1/5 260/1/5 259/1/5
f 266/1/5 260/1/5 265/1/5
f 271/1/5 264/1/5 263/1/5
f 272/1/5 264/1/5 271/1/5
f 273/2/5 268/2/5 267/2/5
f 274/2/5 268/2/5 273/2/5
f 275/2/5 270/2/5 269/2/5
f 276/2/5 270/2/5 275/2/5
f 283/2/5 278/2/5 277/2/5
f 284/2/5 278/2/5 283/2/5
f 285/2/5 280/2/5 279/2/5
f 286/2/5 280/2/5 285/2/5
f 289/1/5 282/1/5 281/1/5
f 290/1/5 282/1/5 289/1/5
f 293/1/5 288/1/5 287/1/5
f 294/1/5 288/1/5 293/1/5
f 295/1/5 291/1/5 290/1/5
f 296/1/5 291/1/5 295/1/5
f 297/1/5 293/1/5 292/1/5
f 298/1/5 293/1/5 297/1/5
f 305/1/5 300/1/5 299/1/5
f 306/1/5 300/1/5 305/1/5
f 307/1/5 302/1/5 301/1/5
f 308/1/5 302/1/5 307/1/5
f 309/1/5 304/1/5 303/1/5
f 310/1/5 304/1/5 309/1/5
f 318/1/5 314/1/5 313/1/5
f 319/1/5 314/1/5 318/1/5
f 321/1/5 318/1/5 317/1/5
f 321/1/5 320/1/5 319/1/5
f 321/1/5 319/1/5 318/1/5
f 322/1/5 320/1/5 321/1/5
f 323/1/5 320/1/5 322/1/5
f 324/1/5 320/1/5 323/1/5
f 325/1/5 312/1/5 311/1/5
f 326/1/5 312/1/5 325/1/5
f 327/1/5 323/1/5 322/1/5
f 328/1/5 323/1/5 327/1/5
f 329/1/5 316/1/5 315/1/5
f 330/1/5 316/1/5 329/1/5
f 337/1/5 332/1/5 331/1/5
f 338/1/5 332/1/5 337/1/5
f 339/1/5 334/1/5 333/1/5
f 340/1/5 334/1/5 339/1/5
f 341/1/5 336/1/5 335/1/5
f 342/1/5 336/1/5 341/1/5
f 343/2/6 344/2/6 347/2/6
f 345/2/6 346/2/6 347/2/6
f 344/2/6 345/2/6 347/2/6
f 347/2/6 346/2/6 348/2/6
f 349/1/6 350/1/6 351/1/6
f 351/1/6 350/1/6 352/1/6
f 349/1/6 351/1/6 353/1/6
f 352/1/6 350/1/6 354/1/6
f 349/1/6 353/1/6 355/1/6
f 353/1/6 354/1/6 355/1/6
f 354/1/6 350/1/6 356/1/6
f 355/1/6 354/1/6 356/1/6
f 357/1/6 358/1/6 359/1/6
f 359/1/6 358/1/6 360/1/6
f 357/1/6 359/1/6 361/1/6
f 360/1/6 358/1/6 362/1/6
f 357/1/6 361/1/6 363/1/6
f 361/1/6 362/1/6 363/1/6
f 362/1/6 358/1/6 364/1/6
f 363/1/6 362/1/6 364/1/6
f 365/1/6 366/1/6 367/1/6
f 367/1/6 366/1/6 368/1/6
