# MagicaVoxel @ Ephtracy

# group
o 

# material
mtllib bomb.mtl
usemtl palette

# normals
vn -1 0 0
vn 1 0 0
vn 0 0 1
vn 0 0 -1
vn 0 -1 0
vn 0 1 0

# texcoords
vt 0.146484 0.5
vt 0.759766 0.5
vt 0.978516 0.5
vt 0.986328 0.5

# verts
v -0.8 0 -1.1
v -0.8 0 -1.5
v -0.8 0.1 -1.1
v -0.8 0.1 -1.5
v -0.8 0.4 -1.1
v -0.8 0.4 -1.3
v -0.8 0.4 -1.5
v -0.8 0.5 -1.1
v -0.8 0.5 -1.3
v -0.7 0.5 -1.2
v -0.7 0.5 -1.3
v -0.7 0.6 -1.2
v -0.7 0.6 -1.3
v -0.7 0.7 -1.2
v -0.7 0.7 -1.3
v -0.6 0.4 -1.1
v -0.6 0.4 -1.3
v -0.6 0.5 -1.1
v -0.6 0.5 -1.2
v -0.6 0.5 -1.3
v -0.6 0.6 -1.2
v -0.6 0.6 -1.3
v -0.6 0.7 -1.2
v -0.6 0.7 -1.3
v -0.4 0 -1.1
v -0.4 0 -1.5
v -0.4 0.1 -1.1
v -0.4 0.1 -1.5
v -0.4 0.4 -1.1
v -0.4 0.4 -1.5
v -0.8 0 -1.1
v -0.8 0.1 -1.1
v -0.8 0.4 -1.1
v -0.8 0.5 -1.1
v -0.6 0.4 -1.1
v -0.6 0.5 -1.1
v -0.4 0 -1.1
v -0.4 0.1 -1.1
v -0.4 0.4 -1.1
v -0.7 0.5 -1.2
v -0.7 0.6 -1.2
v -0.7 0.7 -1.2
v -0.6 0.5 -1.2
v -0.6 0.6 -1.2
v -0.6 0.7 -1.2
v -0.8 0.4 -1.3
v -0.8 0.5 -1.3
v -0.7 0.5 -1.3
v -0.7 0.6 -1.3
v -0.7 0.7 -1.3
v -0.6 0.4 -1.3
v -0.6 0.5 -1.3
v -0.6 0.6 -1.3
v -0.6 0.7 -1.3
v -0.8 0 -1.5
v -0.8 0.1 -1.5
v -0.8 0.4 -1.5
v -0.4 0 -1.5
v -0.4 0.1 -1.5
v -0.4 0.4 -1.5
v -0.8 0 -1.1
v -0.4 0 -1.1
v -0.7 0 -1.2
v -0.5 0 -1.2
v -0.7 0 -1.4
v -0.5 0 -1.4
v -0.8 0 -1.5
v -0.4 0 -1.5
v -0.6 0.4 -1.1
v -0.4 0.4 -1.1
v -0.8 0.4 -1.3
v -0.6 0.4 -1.3
v -0.8 0.4 -1.5
v -0.4 0.4 -1.5
v -0.8 0.5 -1.1
v -0.6 0.5 -1.1
v -0.7 0.5 -1.2
v -0.6 0.5 -1.2
v -0.8 0.5 -1.3
v -0.7 0.5 -1.3
v -0.7 0.7 -1.2
v -0.6 0.7 -1.2
v -0.7 0.7 -1.3
v -0.6 0.7 -1.3

# faces
f 3/4/1 2/4/1 1/4/1
f 4/4/1 2/4/1 3/4/1
f 5/3/1 4/3/1 3/3/1
f 6/3/1 4/3/1 5/3/1
f 7/3/1 4/3/1 6/3/1
f 8/2/1 6/2/1 5/2/1
f 9/2/1 6/2/1 8/2/1
f 12/3/1 11/3/1 10/3/1
f 13/3/1 11/3/1 12/3/1
f 14/1/1 13/1/1 12/1/1
f 15/1/1 13/1/1 14/1/1
f 16/2/2 17/2/2 18/2/2
f 18/2/2 17/2/2 19/2/2
f 19/2/2 17/2/2 20/2/2
f 19/3/2 20/3/2 21/3/2
f 21/3/2 20/3/2 22/3/2
f 21/1/2 22/1/2 23/1/2
f 23/1/2 22/1/2 24/1/2
f 25/4/2 26/4/2 27/4/2
f 27/4/2 26/4/2 28/4/2
f 27/3/2 28/3/2 29/3/2
f 29/3/2 28/3/2 30/3/2
f 35/3/3 33/3/3 32/3/3
f 35/2/3 34/2/3 33/2/3
f 36/2/3 34/2/3 35/2/3
f 37/4/3 32/4/3 31/4/3
f 38/3/3 35/3/3 32/3/3
f 38/4/3 32/4/3 37/4/3
f 39/3/3 35/3/3 38/3/3
f 43/3/3 41/3/3 40/3/3
f 44/1/3 42/1/3 41/1/3
f 44/3/3 41/3/3 43/3/3
f 45/1/3 42/1/3 44/1/3
f 46/2/4 47/2/4 48/2/4
f 46/2/4 48/2/4 51/2/4
f 48/3/4 49/3/4 52/3/4
f 51/2/4 48/2/4 52/2/4
f 49/1/4 50/1/4 53/1/4
f 52/3/4 49/3/4 53/3/4
f 53/1/4 50/1/4 54/1/4
f 55/4/4 56/4/4 58/4/4
f 56/3/4 57/3/4 59/3/4
f 58/4/4 56/4/4 59/4/4
f 59/3/4 57/3/4 60/3/4
f 63/4/5 62/4/5 61/4/5
f 64/4/5 62/4/5 63/4/5
f 65/4/5 63/4/5 61/4/5
f 65/3/5 64/3/5 63/3/5
f 66/4/5 62/4/5 64/4/5
f 66/3/5 64/3/5 65/3/5
f 67/4/5 65/4/5 61/4/5
f 67/4/5 66/4/5 65/4/5
f 68/4/5 62/4/5 66/4/5
f 68/4/5 66/4/5 67/4/5
f 69/3/6 70/3/6 72/3/6
f 71/3/6 72/3/6 73/3/6
f 72/3/6 70/3/6 74/3/6
f 73/3/6 72/3/6 74/3/6
f 75/2/6 76/2/6 77/2/6
f 77/2/6 76/2/6 78/2/6
f 75/2/6 77/2/6 79/2/6
f 79/2/6 77/2/6 80/2/6
f 81/1/6 82/1/6 83/1/6
f 83/1/6 82/1/6 84/1/6
