# MagicaVoxel @ Ephtracy

# group
o 

# material
mtllib tower1.mtl
usemtl palette

# normals
vn -1 0 0
vn 1 0 0
vn 0 0 1
vn 0 0 -1
vn 0 -1 0
vn 0 1 0

# texcoords
vt 0.208984 0.5
vt 0.556641 0.5

# verts
v -0.4 0 0.2
v -0.4 0 0
v -0.4 0 -0.4
v -0.4 0 -0.6
v -0.4 0.2 0.2
v -0.4 0.2 0
v -0.4 0.2 -0.4
v -0.4 0.2 -0.6
v -0.3 0.1 0
v -0.3 0.1 -0.4
v -0.3 0.2 0
v -0.3 0.2 -0.4
v -0.3 0.5 0.1
v -0.3 0.5 -0.5
v -0.3 0.7 0.1
v -0.3 0.7 -0.5
v -0.2 0.2 0
v -0.2 0.2 -0.4
v -0.2 0.3 0
v -0.2 0.3 -0.4
v -0.2 0.7 0
v -0.2 0.7 -0.4
v -0.2 0.9 0
v -0.2 0.9 -0.4
v -0.1 0 -0.1
v -0.1 0 -0.3
v -0.1 0.2 -0.1
v -0.1 0.2 -0.3
v -0.1 0.3 -0.1
v -0.1 0.3 -0.3
v -0.1 0.6 -0.1
v -0.1 0.6 -0.3
v -0.1 0.9 -0.1
v -0.1 0.9 -0.3
v -0.1 1.2 -0.1
v -0.1 1.2 -0.3
v 0.2 0 0.2
v 0.2 0 0
v 0.2 0 -0.4
v 0.2 0 -0.6
v 0.2 0.1 0.1
v 0.2 0.1 0
v 0.2 0.1 -0.4
v 0.2 0.1 -0.5
v 0.2 0.2 0.2
v 0.2 0.2 0.1
v 0.2 0.2 0
v 0.2 0.2 -0.4
v 0.2 0.2 -0.5
v 0.2 0.2 -0.6
v 0.2 0.5 0
v 0.2 0.5 -0.4
v 0.2 0.6 0
v 0.2 0.6 -0.4
v -0.2 0 0.2
v -0.2 0 0
v -0.2 0 -0.4
v -0.2 0 -0.6
v -0.2 0.1 0.1
v -0.2 0.1 0
v -0.2 0.1 -0.4
v -0.2 0.1 -0.5
v -0.2 0.2 0.2
v -0.2 0.2 0.1
v -0.2 0.2 0
v -0.2 0.2 -0.4
v -0.2 0.2 -0.5
v -0.2 0.2 -0.6
v -0.2 0.5 0
v -0.2 0.5 -0.4
v -0.2 0.6 0
v -0.2 0.6 -0.4
v 0.1 0 -0.1
v 0.1 0 -0.3
v 0.1 0.2 -0.1
v 0.1 0.2 -0.3
v 0.1 0.3 -0.1
v 0.1 0.3 -0.3
v 0.1 0.6 -0.1
v 0.1 0.6 -0.3
v 0.1 0.9 -0.1
v 0.1 0.9 -0.3
v 0.1 1.2 -0.1
v 0.1 1.2 -0.3
v 0.2 0.2 0
v 0.2 0.2 -0.4
v 0.2 0.3 0
v 0.2 0.3 -0.4
v 0.2 0.7 0
v 0.2 0.7 -0.4
v 0.2 0.9 0
v 0.2 0.9 -0.4
v 0.3 0.1 0
v 0.3 0.1 -0.4
v 0.3 0.2 0
v 0.3 0.2 -0.4
v 0.3 0.5 0.1
v 0.3 0.5 -0.5
v 0.3 0.7 0.1
v 0.3 0.7 -0.5
v 0.4 0 0.2
v 0.4 0 0
v 0.4 0 -0.4
v 0.4 0 -0.6
v 0.4 0.2 0.2
v 0.4 0.2 0
v 0.4 0.2 -0.4
v 0.4 0.2 -0.6
v -0.4 0 0.2
v -0.4 0.2 0.2
v -0.2 0 0.2
v -0.2 0.2 0.2
v 0.2 0 0.2
v 0.2 0.2 0.2
v 0.4 0 0.2
v 0.4 0.2 0.2
v -0.3 0.5 0.1
v -0.3 0.7 0.1
v -0.2 0.1 0.1
v -0.2 0.2 0.1
v 0.2 0.1 0.1
v 0.2 0.2 0.1
v 0.3 0.5 0.1
v 0.3 0.7 0.1
v -0.2 0.2 0
v -0.2 0.3 0
v -0.2 0.7 0
v -0.2 0.9 0
v 0.2 0.2 0
v 0.2 0.3 0
v 0.2 0.7 0
v 0.2 0.9 0
v -0.1 0 -0.1
v -0.1 0.2 -0.1
v -0.1 0.3 -0.1
v -0.1 0.6 -0.1
v -0.1 0.9 -0.1
v -0.1 1.2 -0.1
v 0.1 0 -0.1
v 0.1 0.2 -0.1
v 0.1 0.3 -0.1
v 0.1 0.6 -0.1
v 0.1 0.9 -0.1
v 0.1 1.2 -0.1
v -0.4 0 -0.4
v -0.4 0.2 -0.4
v -0.3 0.1 -0.4
v -0.3 0.2 -0.4
v -0.2 0 -0.4
v -0.2 0.1 -0.4
v -0.2 0.2 -0.4
v -0.2 0.5 -0.4
v -0.2 0.6 -0.4
v 0.2 0 -0.4
v 0.2 0.1 -0.4
v 0.2 0.2 -0.4
v 0.2 0.5 -0.4
v 0.2 0.6 -0.4
v 0.3 0.1 -0.4
v 0.3 0.2 -0.4
v 0.4 0 -0.4
v 0.4 0.2 -0.4
v -0.4 0 0
v -0.4 0.2 0
v -0.3 0.1 0
v -0.3 0.2 0
v -0.2 0 0
v -0.2 0.1 0
v -0.2 0.2 0
v -0.2 0.5 0
v -0.2 0.6 0
v 0.2 0 0
v 0.2 0.1 0
v 0.2 0.2 0
v 0.2 0.5 0
v 0.2 0.6 0
v 0.3 0.1 0
v 0.3 0.2 0
v 0.4 0 0
v 0.4 0.2 0
v -0.1 0 -0.3
v -0.1 0.2 -0.3
v -0.1 0.3 -0.3
v -0.1 0.6 -0.3
v -0.1 0.9 -0.3
v -0.1 1.2 -0.3
v 0.1 0 -0.3
v 0.1 0.2 -0.3
v 0.1 0.3 -0.3
v 0.1 0.6 -0.3
v 0.1 0.9 -0.3
v 0.1 1.2 -0.3
v -0.2 0.2 -0.4
v -0.2 0.3 -0.4
v -0.2 0.7 -0.4
v -0.2 0.9 -0.4
v 0.2 0.2 -0.4
v 0.2 0.3 -0.4
v 0.2 0.7 -0.4
v 0.2 0.9 -0.4
v -0.3 0.5 -0.5
v -0.3 0.7 -0.5
v -0.2 0.1 -0.5
v -0.2 0.2 -0.5
v 0.2 0.1 -0.5
v 0.2 0.2 -0.5
v 0.3 0.5 -0.5
v 0.3 0.7 -0.5
v -0.4 0 -0.6
v -0.4 0.2 -0.6
v -0.2 0 -0.6
v -0.2 0.2 -0.6
v 0.2 0 -0.6
v 0.2 0.2 -0.6
v 0.4 0 -0.6
v 0.4 0.2 -0.6
v -0.4 0 0.2
v -0.2 0 0.2
v 0.2 0 0.2
v 0.4 0 0.2
v -0.4 0 0
v -0.2 0 0
v 0.2 0 0
v 0.4 0 0
v -0.1 0 -0.1
v 0.1 0 -0.1
v -0.1 0 -0.3
v 0.1 0 -0.3
v -0.4 0 -0.4
v -0.2 0 -0.4
v 0.2 0 -0.4
v 0.4 0 -0.4
v -0.4 0 -0.6
v -0.2 0 -0.6
v 0.2 0 -0.6
v 0.4 0 -0.6
v -0.2 0.1 0.1
v 0.2 0.1 0.1
v -0.3 0.1 0
v -0.2 0.1 0
v 0.2 0.1 0
v 0.3 0.1 0
v -0.3 0.1 -0.4
v -0.2 0.1 -0.4
v 0.2 0.1 -0.4
v 0.3 0.1 -0.4
v -0.2 0.1 -0.5
v 0.2 0.1 -0.5
v -0.2 0.2 0
v 0.2 0.2 0
v -0.1 0.2 -0.1
v 0.1 0.2 -0.1
v -0.1 0.2 -0.3
v 0.1 0.2 -0.3
v -0.2 0.2 -0.4
v 0.2 0.2 -0.4
v -0.3 0.5 0.1
v 0.3 0.5 0.1
v -0.2 0.5 0
v 0.2 0.5 0
v -0.2 0.5 -0.4
v 0.2 0.5 -0.4
v -0.3 0.5 -0.5
v 0.3 0.5 -0.5
v -0.2 0.6 0
v 0.2 0.6 0
v -0.1 0.6 -0.1
v 0.1 0.6 -0.1
v -0.1 0.6 -0.3
v 0.1 0.6 -0.3
v -0.2 0.6 -0.4
v 0.2 0.6 -0.4
v -0.4 0.2 0.2
v -0.2 0.2 0.2
v 0.2 0.2 0.2
v 0.4 0.2 0.2
v -0.2 0.2 0.1
v 0.2 0.2 0.1
v -0.4 0.2 0
v -0.3 0.2 0
v -0.2 0.2 0
v 0.2 0.2 0
v 0.3 0.2 0
v 0.4 0.2 0
v -0.4 0.2 -0.4
v -0.3 0.2 -0.4
v -0.2 0.2 -0.4
v 0.2 0.2 -0.4
v 0.3 0.2 -0.4
v 0.4 0.2 -0.4
v -0.2 0.2 -0.5
v 0.2 0.2 -0.5
v -0.4 0.2 -0.6
v -0.2 0.2 -0.6
v 0.2 0.2 -0.6
v 0.4 0.2 -0.6
v -0.2 0.3 0
v 0.2 0.3 0
v -0.1 0.3 -0.1
v 0.1 0.3 -0.1
v -0.1 0.3 -0.3
v 0.1 0.3 -0.3
v -0.2 0.3 -0.4
v 0.2 0.3 -0.4
v -0.3 0.7 0.1
v 0.3 0.7 0.1
v -0.2 0.7 0
v 0.2 0.7 0
v -0.2 0.7 -0.4
v 0.2 0.7 -0.4
v -0.3 0.7 -0.5
v 0.3 0.7 -0.5
v -0.2 0.9 0
v 0.2 0.9 0
v -0.1 0.9 -0.1
v 0.1 0.9 -0.1
v -0.1 0.9 -0.3
v 0.1 0.9 -0.3
v -0.2 0.9 -0.4
v 0.2 0.9 -0.4
v -0.1 1.2 -0.1
v 0.1 1.2 -0.1
v -0.1 1.2 -0.3
v 0.1 1.2 -0.3

# faces
f 5/1/1 2/1/1 1/1/1
f 6/1/1 2/1/1 5/1/1
f 7/1/1 4/1/1 3/1/1
f 8/1/1 4/1/1 7/1/1
f 11/1/1 10/1/1 9/1/1
f 12/1/1 10/1/1 11/1/1
f 15/2/1 14/2/1 13/2/1
f 16/2/1 14/2/1 15/2/1
f 19/1/1 18/1/1 17/1/1
f 20/1/1 18/1/1 19/1/1
f 23/2/1 22/2/1 21/2/1
f 24/2/1 22/2/1 23/2/1
f 27/1/1 26/1/1 25/1/1
f 28/1/1 26/1/1 27/1/1
f 31/1/1 30/1/1 29/1/1
f 32/1/1 30/1/1 31/1/1
f 35/2/1 34/2/1 33/2/1
f 36/2/1 34/2/1 35/2/1
f 41/1/1 38/1/1 37/1/1
f 42/1/1 38/1/1 41/1/1
f 43/1/1 40/1/1 39/1/1
f 44/1/1 40/1/1 43/1/1
f 45/1/1 41/1/1 37/1/1
f 46/1/1 41/1/1 45/1/1
f 47/1/1 43/1/1 42/1/1
f 48/1/1 43/1/1 47/1/1
f 49/1/1 40/1/1 44/1/1
f 50/1/1 40/1/1 49/1/1
f 53/2/1 52/2/1 51/2/1
f 54/2/1 52/2/1 53/2/1
f 55/1/2 56/1/2 59/1/2
f 59/1/2 56/1/2 60/1/2
f 57/1/2 58/1/2 61/1/2
f 61/1/2 58/1/2 62/1/2
f 55/1/2 59/1/2 63/1/2
f 63/1/2 59/1/2 64/1/2
f 60/1/2 61/1/2 65/1/2
f 65/1/2 61/1/2 66/1/2
f 62/1/2 58/1/2 67/1/2
f 67/1/2 58/1/2 68/1/2
f 69/2/2 70/2/2 71/2/2
f 71/2/2 70/2/2 72/2/2
f 73/1/2 74/1/2 75/1/2
f 75/1/2 74/1/2 76/1/2
f 77/1/2 78/1/2 79/1/2
f 79/1/2 78/1/2 80/1/2
f 81/2/2 82/2/2 83/2/2
f 83/2/2 82/2/2 84/2/2
f 85/1/2 86/1/2 87/1/2
f 87/1/2 86/1/2 88/1/2
f 89/2/2 90/2/2 91/2/2
f 91/2/2 90/2/2 92/2/2
f 93/1/2 94/1/2 95/1/2
f 95/1/2 94/1/2 96/1/2
f 97/2/2 98/2/2 99/2/2
f 99/2/2 98/2/2 100/2/2
f 101/1/2 102/1/2 105/1/2
f 105/1/2 102/1/2 106/1/2
f 103/1/2 104/1/2 107/1/2
f 107/1/2 104/1/2 108/1/2
f 111/1/3 110/1/3 109/1/3
f 112/1/3 110/1/3 111/1/3
f 115/1/3 114/1/3 113/1/3
f 116/1/3 114/1/3 115/1/3
f 121/1/3 120/1/3 119/1/3
f 122/1/3 120/1/3 121/1/3
f 123/2/3 118/2/3 117/2/3
f 124/2/3 118/2/3 123/2/3
f 129/1/3 126/1/3 125/1/3
f 130/1/3 126/1/3 129/1/3
f 131/2/3 128/2/3 127/2/3
f 132/2/3 128/2/3 131/2/3
f 139/1/3 134/1/3 133/1/3
f 140/1/3 134/1/3 139/1/3
f 141/1/3 136/1/3 135/1/3
f 142/1/3 136/1/3 141/1/3
f 143/2/3 138/2/3 137/2/3
f 144/2/3 138/2/3 143/2/3
f 147/1/3 146/1/3 145/1/3
f 148/1/3 146/1/3 147/1/3
f 149/1/3 147/1/3 145/1/3
f 150/1/3 147/1/3 149/1/3
f 155/1/3 151/1/3 150/1/3
f 156/1/3 151/1/3 155/1/3
f 157/2/3 153/2/3 152/2/3
f 158/2/3 153/2/3 157/2/3
f 159/1/3 155/1/3 154/1/3
f 161/1/3 159/1/3 154/1/3
f 161/1/3 160/1/3 159/1/3
f 162/1/3 160/1/3 161/1/3
f 163/1/4 164/1/4 165/1/4
f 165/1/4 164/1/4 166/1/4
f 163/1/4 165/1/4 167/1/4
f 167/1/4 165/1/4 168/1/4
f 168/1/4 169/1/4 173/1/4
f 173/1/4 169/1/4 174/1/4
f 170/2/4 171/2/4 175/2/4
f 175/2/4 171/2/4 176/2/4
f 172/1/4 173/1/4 177/1/4
f 172/1/4 177/1/4 179/1/4
f 177/1/4 178/1/4 179/1/4
f 179/1/4 178/1/4 180/1/4
f 181/1/4 182/1/4 187/1/4
f 187/1/4 182/1/4 188/1/4
f 183/1/4 184/1/4 189/1/4
f 189/1/4 184/1/4 190/1/4
f 185/2/4 186/2/4 191/2/4
f 191/2/4 186/2/4 192/2/4
f 193/1/4 194/1/4 197/1/4
f 197/1/4 194/1/4 198/1/4
f 195/2/4 196/2/4 199/2/4
f 199/2/4 196/2/4 200/2/4
f 203/1/4 204/1/4 205/1/4
f 205/1/4 204/1/4 206/1/4
f 201/2/4 202/2/4 207/2/4
f 207/2/4 202/2/4 208/2/4
f 209/1/4 210/1/4 211/1/4
f 211/1/4 210/1/4 212/1/4
f 213/1/4 214/1/4 215/1/4
f 215/1/4 214/1/4 216/1/4
f 221/1/5 218/1/5 217/1/5
f 222/1/5 218/1/5 221/1/5
f 223/1/5 220/1/5 219/1/5
f 224/1/5 220/1/5 223/1/5
f 227/1/5 226/1/5 225/1/5
f 228/1/5 226/1/5 227/1/5
f 233/1/5 230/1/5 229/1/5
f 234/1/5 230/1/5 233/1/5
f 235/1/5 232/1/5 231/1/5
f 236/1/5 232/1/5 235/1/5
f 240/1/5 238/1/5 237/1/5
f 241/1/5 238/1/5 240/1/5
f 243/1/5 240/1/5 239/1/5
f 244/1/5 240/1/5 243/1/5
f 245/1/5 242/1/5 241/1/5
f 246/1/5 242/1/5 245/1/5
f 247/1/5 245/1/5 244/1/5
f 248/1/5 245/1/5 247/1/5
f 251/1/5 250/1/5 249/1/5
f 252/1/5 250/1/5 251/1/5
f 253/1/5 251/1/5 249/1/5
f 254/1/5 250/1/5 252/1/5
f 255/1/5 253/1/5 249/1/5
f 255/1/5 254/1/5 253/1/5
f 256/1/5 250/1/5 254/1/5
f 256/1/5 254/1/5 255/1/5
f 259/2/5 258/2/5 257/2/5
f 260/2/5 258/2/5 259/2/5
f 261/2/5 259/2/5 257/2/5
f 262/2/5 258/2/5 260/2/5
f 263/2/5 261/2/5 257/2/5
f 263/2/5 262/2/5 261/2/5
f 264/2/5 258/2/5 262/2/5
f 264/2/5 262/2/5 263/2/5
f 267/2/5 266/2/5 265/2/5
f 268/2/5 266/2/5 267/2/5
f 269/2/5 267/2/5 265/2/5
f 270/2/5 266/2/5 268/2/5
f 271/2/5 269/2/5 265/2/5
f 271/2/5 270/2/5 269/2/5
f 272/2/5 266/2/5 270/2/5
f 272/2/5 270/2/5 271/2/5
f 273/1/6 274/1/6 277/1/6
f 275/1/6 276/1/6 278/1/6
f 273/1/6 277/1/6 279/1/6
f 277/1/6 278/1/6 279/1/6
f 279/1/6 278/1/6 280/1/6
f 280/1/6 278/1/6 281/1/6
f 278/1/6 276/1/6 282/1/6
f 281/1/6 278/1/6 282/1/6
f 282/1/6 276/1/6 283/1/6
f 283/1/6 276/1/6 284/1/6
f 280/1/6 281/1/6 286/1/6
f 286/1/6 281/1/6 287/1/6
f 282/1/6 283/1/6 288/1/6
f 288/1/6 283/1/6 289/1/6
f 286/1/6 287/1/6 291/1/6
f 289/1/6 290/1/6 291/1/6
f 288/1/6 289/1/6 291/1/6
f 287/1/6 288/1/6 291/1/6
f 285/1/6 286/1/6 291/1/6
f 291/1/6 290/1/6 292/1/6
f 285/1/6 291/1/6 293/1/6
f 293/1/6 291/1/6 294/1/6
f 292/1/6 290/1/6 295/1/6
f 295/1/6 290/1/6 296/1/6
f 297/1/6 298/1/6 299/1/6
f 299/1/6 298/1/6 300/1/6
f 297/1/6 299/1/6 301/1/6
f 300/1/6 298/1/6 302/1/6
f 297/1/6 301/1/6 303/1/6
f 301/1/6 302/1/6 303/1/6
f 302/1/6 298/1/6 304/1/6
f 303/1/6 302/1/6 304/1/6
f 305/2/6 306/2/6 307/2/6
f 307/2/6 306/2/6 308/2/6
f 305/2/6 307/2/6 309/2/6
f 308/2/6 306/2/6 310/2/6
f 305/2/6 309/2/6 311/2/6
f 309/2/6 310/2/6 311/2/6
f 310/2/6 306/2/6 312/2/6
f 311/2/6 310/2/6 312/2/6
f 313/2/6 314/2/6 315/2/6
f 315/2/6 314/2/6 316/2/6
f 313/2/6 315/2/6 317/2/6
f 316/2/6 314/2/6 318/2/6
f 313/2/6 317/2/6 319/2/6
f 317/2/6 318/2/6 319/2/6
f 318/2/6 314/2/6 320/2/6
f 319/2/6 318/2/6 320/2/6
f 321/2/6 322/2/6 323/2/6
f 323/2/6 322/2/6 324/2/6
